<svg id="svg" version="1.1" xmlns="http://www.w3.org/2000/svg" xmlns:xlink="http://www.w3.org/1999/xlink" width="400" height="400" viewBox="0, 0, 400,400"><g id="svgg"><path id="path0" d="M194.200 46.030 C 192.368 46.581,185.591 47.514,179.800 48.013 C 173.767 48.532,169.530 49.322,166.645 50.465 C 165.520 50.911,162.185 51.796,159.234 52.432 C 155.932 53.143,152.999 54.040,151.608 54.764 C 150.366 55.410,148.268 56.220,146.947 56.562 C 143.283 57.511,141.140 58.337,139.600 59.392 C 138.830 59.920,136.773 60.828,135.029 61.410 C 133.285 61.991,131.304 62.891,130.625 63.408 C 129.947 63.925,127.841 65.061,125.945 65.933 C 124.049 66.805,122.372 67.722,122.218 67.971 C 122.064 68.219,120.344 69.224,118.394 70.203 C 116.444 71.182,114.703 72.243,114.525 72.559 C 114.346 72.876,113.390 73.595,112.400 74.156 C 111.411 74.718,109.881 75.825,109.000 76.617 C 107.304 78.143,105.275 79.725,101.458 82.498 C 100.169 83.434,98.142 85.055,96.953 86.100 C 95.764 87.145,94.609 88.000,94.387 88.000 C 94.035 88.000,92.890 89.030,88.720 93.097 C 83.386 98.298,76.330 106.097,74.876 108.400 C 74.250 109.390,72.981 111.073,72.056 112.140 C 71.130 113.207,69.931 114.952,69.391 116.017 C 68.851 117.083,68.151 118.100,67.836 118.278 C 67.520 118.455,66.424 120.040,65.400 121.800 C 63.014 125.901,61.179 128.936,59.715 131.200 C 59.075 132.190,58.054 134.350,57.447 135.999 C 56.840 137.649,55.897 139.584,55.351 140.300 C 54.070 141.979,53.400 143.615,52.628 146.941 C 52.285 148.423,51.386 150.842,50.631 152.317 C 49.093 155.323,48.777 156.384,47.608 162.453 C 47.158 164.792,46.427 167.759,45.984 169.045 C 41.055 183.372,41.187 220.762,46.219 235.467 C 46.759 237.044,47.202 238.664,47.204 239.067 C 47.214 241.069,49.345 248.838,50.574 251.351 C 51.341 252.918,52.345 255.640,52.806 257.400 C 53.272 259.178,54.338 261.755,55.205 263.200 C 56.063 264.630,57.205 266.970,57.742 268.400 C 58.279 269.830,59.367 271.963,60.159 273.140 C 60.952 274.317,61.600 275.452,61.600 275.661 C 61.600 275.871,62.377 277.248,63.327 278.721 C 64.276 280.195,65.475 282.120,65.990 283.000 C 66.504 283.880,67.428 285.140,68.043 285.800 C 68.657 286.460,69.438 287.669,69.779 288.486 C 70.120 289.304,71.215 290.891,72.211 292.013 C 73.208 293.135,74.493 294.806,75.067 295.727 C 76.433 297.918,81.801 304.076,84.895 307.000 C 85.361 307.440,86.205 308.314,86.771 308.942 C 87.337 309.570,88.301 310.560,88.914 311.142 C 89.526 311.724,90.817 312.953,91.781 313.873 C 92.745 314.793,94.044 315.810,94.667 316.133 C 95.290 316.455,96.610 317.426,97.600 318.290 C 98.590 319.154,100.525 320.618,101.900 321.545 C 103.275 322.472,104.400 323.405,104.400 323.620 C 104.400 323.834,105.435 324.672,106.700 325.480 C 107.965 326.289,109.332 327.372,109.738 327.886 C 110.144 328.401,111.224 329.203,112.138 329.669 C 113.052 330.134,114.527 331.109,115.415 331.836 C 116.303 332.563,118.193 333.682,119.615 334.324 C 121.037 334.966,122.525 335.855,122.922 336.301 C 123.319 336.746,125.029 337.702,126.722 338.423 C 128.415 339.145,130.371 340.154,131.068 340.664 C 131.766 341.174,133.926 342.159,135.868 342.851 C 137.811 343.544,139.967 344.531,140.661 345.046 C 141.711 345.825,148.035 348.000,149.250 348.000 C 149.448 348.000,150.933 348.637,152.550 349.415 C 154.167 350.193,156.910 351.097,158.645 351.423 C 165.032 352.626,165.843 352.835,168.000 353.838 C 170.882 355.178,180.870 356.516,197.745 357.824 C 201.895 358.146,205.440 358.501,205.623 358.614 C 205.805 358.727,208.890 358.540,212.477 358.198 C 216.065 357.857,220.980 357.389,223.400 357.159 C 241.109 355.476,243.971 355.037,246.870 353.563 C 247.678 353.151,249.893 352.544,251.791 352.213 C 256.872 351.327,259.967 350.453,261.785 349.390 C 262.673 348.871,265.333 347.922,267.695 347.281 C 270.077 346.635,272.667 345.647,273.508 345.063 C 274.344 344.485,276.371 343.556,278.013 343.000 C 279.656 342.444,281.503 341.620,282.119 341.169 C 283.409 340.223,287.985 338.001,288.645 338.000 C 288.890 338.000,289.790 337.441,290.645 336.759 C 291.500 336.076,293.460 334.888,295.000 334.118 C 296.540 333.348,298.340 332.226,299.000 331.625 C 299.660 331.023,300.920 330.122,301.800 329.622 C 302.680 329.122,304.120 328.092,305.000 327.334 C 307.506 325.173,312.430 321.424,314.300 320.254 C 315.235 319.669,316.000 319.008,316.000 318.786 C 316.000 318.564,316.820 317.862,317.823 317.227 C 322.578 314.211,333.351 303.230,339.214 295.422 C 340.196 294.114,342.231 291.422,343.735 289.439 C 345.240 287.456,346.886 285.016,347.392 284.017 C 347.899 283.018,348.716 281.840,349.208 281.400 C 349.699 280.960,350.894 278.988,351.863 277.018 C 352.832 275.048,353.873 273.158,354.177 272.818 C 354.945 271.960,358.621 264.055,360.020 260.254 C 360.656 258.524,361.629 256.338,362.182 255.395 C 362.753 254.421,363.789 251.162,364.582 247.846 C 365.350 244.636,366.345 241.292,366.793 240.414 C 367.922 238.202,368.652 234.755,369.382 228.200 C 369.725 225.120,370.262 221.160,370.575 219.400 C 371.064 216.655,371.354 213.877,372.161 204.200 C 372.409 201.225,371.566 190.636,370.600 184.600 C 370.072 181.300,369.528 177.250,369.392 175.600 C 369.012 171.011,368.057 166.633,366.610 162.841 C 365.887 160.948,364.802 157.247,364.198 154.616 C 363.594 151.985,362.762 149.375,362.349 148.816 C 361.936 148.257,360.957 146.004,360.173 143.809 C 359.388 141.613,358.603 139.633,358.427 139.409 C 358.251 139.184,357.430 137.470,356.603 135.600 C 355.775 133.730,354.659 131.611,354.123 130.892 C 353.586 130.173,352.550 128.283,351.821 126.692 C 351.091 125.101,350.005 123.350,349.407 122.800 C 348.809 122.250,347.773 120.720,347.104 119.400 C 346.436 118.080,345.127 116.100,344.196 115.000 C 343.265 113.900,342.216 112.437,341.866 111.748 C 341.516 111.060,340.992 110.406,340.701 110.294 C 340.410 110.182,339.644 109.306,338.999 108.346 C 338.354 107.385,337.145 105.839,336.313 104.909 C 335.481 103.979,334.800 103.056,334.800 102.858 C 334.800 102.148,319.928 87.600,319.202 87.600 C 318.962 87.600,317.918 86.822,316.883 85.871 C 315.847 84.920,314.358 83.756,313.574 83.284 C 312.789 82.812,311.809 82.052,311.395 81.594 C 310.981 81.137,309.553 80.029,308.221 79.133 C 306.889 78.237,305.170 76.916,304.400 76.196 C 303.630 75.477,302.460 74.615,301.800 74.282 C 301.140 73.949,300.159 73.204,299.621 72.628 C 299.082 72.051,297.340 70.954,295.751 70.189 C 294.161 69.424,292.312 68.338,291.643 67.775 C 290.974 67.212,289.347 66.328,288.028 65.811 C 286.709 65.294,284.858 64.319,283.915 63.643 C 282.972 62.968,280.884 61.969,279.276 61.423 C 277.668 60.878,275.375 59.872,274.181 59.189 C 272.986 58.506,270.342 57.493,268.305 56.938 C 266.267 56.383,263.700 55.423,262.600 54.805 C 261.391 54.126,258.701 53.264,255.800 52.627 C 253.160 52.047,249.470 51.052,247.600 50.416 C 243.450 49.003,240.881 48.537,234.400 48.022 C 231.650 47.803,226.713 47.169,223.429 46.612 C 217.110 45.541,197.147 45.143,194.200 46.030 M228.059 81.915 C 235.212 82.809,237.398 83.279,239.598 84.395 C 240.369 84.787,243.430 85.587,246.400 86.172 C 250.157 86.913,252.420 87.587,253.837 88.387 C 254.958 89.019,257.416 90.006,259.301 90.581 C 261.185 91.156,263.418 92.101,264.263 92.681 C 265.109 93.260,267.225 94.331,268.966 95.060 C 270.707 95.788,272.507 96.736,272.966 97.166 C 273.425 97.596,275.092 98.585,276.671 99.365 C 278.250 100.144,279.648 100.955,279.778 101.165 C 279.909 101.376,281.452 102.496,283.208 103.654 C 284.963 104.813,286.400 105.906,286.400 106.085 C 286.400 106.264,287.345 107.019,288.500 107.764 C 289.655 108.508,291.140 109.692,291.800 110.394 C 292.460 111.097,293.540 111.952,294.200 112.295 C 296.940 113.720,307.276 123.448,309.398 126.600 C 310.139 127.700,311.304 129.116,311.987 129.747 C 312.670 130.378,313.517 131.458,313.869 132.147 C 314.221 132.836,315.094 134.053,315.808 134.850 C 316.523 135.648,317.617 137.178,318.239 138.250 C 318.861 139.323,319.941 141.010,320.637 142.000 C 321.334 142.990,322.310 144.604,322.805 145.588 C 323.300 146.571,324.040 147.831,324.448 148.388 C 324.857 148.944,325.742 150.915,326.416 152.766 C 327.089 154.618,327.967 156.598,328.366 157.166 C 329.819 159.234,330.450 160.905,331.400 165.201 C 331.933 167.610,332.631 169.990,332.952 170.490 C 338.352 178.910,338.528 222.356,333.206 232.789 C 332.767 233.650,331.933 236.389,331.354 238.877 C 330.265 243.549,329.869 244.579,328.223 247.004 C 327.691 247.789,326.876 249.568,326.414 250.959 C 325.951 252.349,325.038 254.330,324.385 255.360 C 323.731 256.390,322.724 258.170,322.146 259.316 C 321.568 260.462,320.606 262.120,320.009 263.000 C 319.412 263.880,318.236 265.635,317.395 266.900 C 316.555 268.165,315.755 269.200,315.618 269.200 C 315.481 269.200,314.766 270.195,314.029 271.411 C 313.292 272.627,312.183 274.048,311.564 274.569 C 310.946 275.089,310.089 276.093,309.659 276.800 C 308.349 278.954,300.321 287.224,298.775 288.013 C 297.976 288.420,297.022 289.212,296.655 289.772 C 296.288 290.332,295.316 291.135,294.494 291.556 C 293.672 291.977,292.550 292.814,292.000 293.415 C 291.450 294.017,290.100 295.096,289.000 295.814 C 287.900 296.533,286.370 297.692,285.600 298.392 C 284.830 299.091,283.165 300.305,281.900 301.089 C 280.635 301.872,279.600 302.646,279.600 302.807 C 279.600 302.969,278.295 303.786,276.700 304.623 C 275.105 305.460,273.106 306.646,272.258 307.259 C 271.410 307.872,269.711 308.750,268.482 309.210 C 267.254 309.669,265.123 310.675,263.747 311.444 C 262.371 312.214,259.592 313.297,257.571 313.851 C 255.550 314.404,253.244 315.284,252.448 315.806 C 251.652 316.328,249.830 317.027,248.400 317.360 C 240.580 319.180,238.794 319.643,236.675 320.398 C 226.576 323.997,185.604 323.837,176.864 320.165 C 176.059 319.827,172.719 318.934,169.443 318.180 C 166.050 317.399,162.779 316.396,161.843 315.849 C 160.939 315.321,158.850 314.500,157.200 314.024 C 153.136 312.852,152.007 312.399,150.600 311.379 C 149.940 310.901,148.086 310.015,146.480 309.412 C 144.874 308.809,143.040 307.878,142.405 307.343 C 141.770 306.808,139.928 305.760,138.313 305.014 C 136.697 304.268,135.021 303.265,134.588 302.786 C 134.154 302.307,133.080 301.548,132.200 301.099 C 131.320 300.651,129.790 299.593,128.800 298.748 C 125.163 295.643,122.536 293.589,119.900 291.785 C 118.415 290.770,117.200 289.777,117.200 289.580 C 117.200 289.383,116.276 288.599,115.146 287.838 C 114.016 287.077,112.793 286.000,112.429 285.444 C 112.064 284.888,111.015 283.889,110.097 283.224 C 109.180 282.560,108.155 281.486,107.820 280.839 C 107.486 280.192,106.665 279.274,105.997 278.798 C 105.328 278.322,104.152 277.002,103.384 275.866 C 102.615 274.730,100.714 272.180,99.160 270.200 C 97.606 268.220,95.825 265.610,95.204 264.400 C 94.582 263.190,93.525 261.592,92.856 260.849 C 92.167 260.085,91.203 258.204,90.635 256.516 C 90.016 254.674,89.110 252.955,88.268 252.022 C 87.365 251.023,86.529 249.375,85.798 247.156 C 85.190 245.310,84.552 243.620,84.380 243.399 C 82.704 241.255,79.410 229.400,77.990 220.400 C 75.801 206.529,76.806 182.731,79.980 173.283 C 80.402 172.027,81.136 169.560,81.612 167.800 C 82.088 166.040,82.988 163.520,83.611 162.200 C 84.235 160.880,85.225 158.450,85.810 156.800 C 86.396 155.150,87.414 153.116,88.073 152.280 C 88.731 151.444,89.882 149.201,90.630 147.296 C 91.378 145.391,92.444 143.410,92.999 142.895 C 93.555 142.381,94.540 140.907,95.190 139.620 C 96.399 137.225,99.264 133.151,101.912 130.064 C 102.730 129.110,103.557 128.030,103.748 127.664 C 103.939 127.299,104.929 126.172,105.948 125.161 C 106.967 124.150,108.272 122.800,108.848 122.161 C 109.424 121.522,110.414 120.531,111.048 119.958 C 111.682 119.386,112.650 118.441,113.200 117.859 C 115.371 115.563,117.939 113.344,119.725 112.220 C 120.756 111.571,121.600 110.905,121.600 110.739 C 121.600 110.574,122.455 109.859,123.500 109.150 C 124.545 108.441,126.390 107.026,127.600 106.004 C 128.810 104.983,130.520 103.719,131.400 103.195 C 132.280 102.672,133.146 102.006,133.324 101.714 C 133.502 101.423,135.122 100.449,136.924 99.549 C 138.726 98.649,140.782 97.476,141.494 96.941 C 142.205 96.406,143.939 95.535,145.346 95.006 C 146.754 94.476,148.771 93.493,149.830 92.822 C 150.889 92.151,153.270 91.139,155.122 90.574 C 156.974 90.009,159.504 89.018,160.745 88.371 C 162.136 87.645,164.915 86.794,168.000 86.150 C 170.750 85.576,173.631 84.786,174.402 84.395 C 176.576 83.292,178.468 82.900,185.800 82.031 C 189.540 81.587,193.140 81.150,193.800 81.058 C 197.652 80.524,221.747 81.126,228.059 81.915 " stroke="none" fill="#fbc00e" fill-rule="evenodd"></path><path id="path1" d="M203.600 115.769 C 200.370 116.737,197.395 118.288,195.580 119.949 C 194.601 120.845,192.540 122.680,191.000 124.026 C 184.713 129.521,183.866 130.274,182.024 132.000 C 180.232 133.678,174.928 138.391,163.666 148.309 C 161.099 150.568,158.010 153.304,156.800 154.388 C 151.123 159.472,150.017 160.458,147.400 162.770 C 140.983 168.438,135.202 174.163,134.513 175.534 C 134.108 176.340,133.241 177.900,132.588 179.000 L 131.400 181.000 131.400 215.200 L 131.400 249.400 133.154 252.759 C 136.092 258.384,138.809 260.725,143.400 261.588 C 145.134 261.914,163.223 262.006,208.600 261.920 L 271.400 261.800 273.908 260.490 C 276.566 259.102,279.033 256.275,281.043 252.313 L 282.000 250.427 282.000 215.193 C 282.000 175.793,282.303 179.812,278.954 174.788 C 277.280 172.279,275.951 171.004,263.634 160.096 C 256.699 153.954,254.468 151.945,252.859 150.394 C 252.056 149.621,250.770 148.542,250.000 147.996 C 249.230 147.451,247.840 146.283,246.912 145.402 C 245.983 144.521,244.273 142.955,243.112 141.922 C 241.950 140.888,237.554 136.928,233.341 133.122 C 229.129 129.315,224.307 125.030,222.626 123.600 C 220.945 122.170,218.832 120.336,217.929 119.524 C 217.027 118.712,215.279 117.647,214.044 117.158 C 212.810 116.669,211.620 116.134,211.400 115.969 C 210.582 115.354,205.423 115.222,203.600 115.769 M211.849 119.420 C 212.415 119.533,212.779 119.995,212.941 120.804 C 213.074 121.472,213.502 122.122,213.892 122.248 C 214.281 122.374,215.140 122.722,215.800 123.020 C 216.460 123.318,217.535 123.720,218.190 123.911 C 219.101 124.178,219.442 124.566,219.647 125.567 C 219.998 127.286,220.323 127.561,222.429 127.918 C 224.170 128.213,224.202 128.247,224.323 129.907 C 224.453 131.700,224.649 131.839,227.400 132.090 C 228.485 132.189,228.622 132.362,228.826 133.893 C 229.100 135.949,228.957 135.818,231.400 136.250 C 233.374 136.599,233.402 136.624,233.530 138.197 C 233.677 139.999,234.079 140.385,235.820 140.394 C 237.389 140.402,238.000 141.039,238.000 142.666 C 238.000 144.085,238.835 144.800,240.494 144.800 C 241.666 144.800,242.400 145.495,242.400 146.604 C 242.400 147.791,243.227 148.740,244.400 148.900 C 246.091 149.130,247.200 149.956,247.200 150.986 C 247.200 152.034,248.146 153.200,248.996 153.200 C 249.894 153.200,251.847 154.489,252.235 155.338 C 252.436 155.776,252.957 156.329,253.394 156.567 C 253.831 156.805,254.411 157.294,254.684 157.653 C 254.956 158.012,255.994 158.428,256.990 158.578 C 258.700 158.834,258.800 158.920,258.806 160.125 C 258.815 161.982,259.285 162.463,261.316 162.692 C 263.117 162.895,263.134 162.910,263.467 164.748 L 263.804 166.600 265.802 166.800 L 267.800 167.000 267.927 168.600 C 268.085 170.601,268.372 170.889,270.486 171.172 C 272.065 171.384,272.203 171.501,272.416 172.814 C 272.745 174.839,273.077 175.200,274.610 175.200 C 277.229 175.200,277.234 175.277,277.248 213.854 C 277.263 254.702,277.234 255.200,274.821 255.200 C 272.970 255.200,272.000 256.017,272.000 257.576 C 272.000 259.247,274.192 259.195,206.600 259.148 C 138.597 259.101,141.997 259.201,141.360 257.235 C 140.814 255.551,139.829 254.800,138.167 254.800 C 137.006 254.800,136.861 254.662,136.603 253.300 C 136.072 250.499,135.898 184.165,136.411 179.946 L 136.879 176.092 138.275 175.865 C 140.222 175.549,140.800 174.939,140.800 173.198 C 140.800 171.583,141.334 171.217,143.710 171.205 C 144.900 171.200,145.600 170.076,145.600 168.174 C 145.600 167.354,145.794 167.200,146.826 167.200 C 148.514 167.200,149.182 166.766,150.774 164.638 C 151.530 163.627,152.465 162.800,152.851 162.800 C 153.237 162.800,153.666 162.617,153.804 162.394 C 153.942 162.171,154.672 161.730,155.427 161.414 C 156.182 161.099,156.800 160.586,156.800 160.274 C 156.800 159.064,158.394 157.649,159.900 157.524 C 161.290 157.407,161.399 157.299,161.710 155.713 C 162.035 154.062,163.302 153.213,165.457 153.202 C 166.003 153.200,166.400 152.280,166.400 151.016 C 166.400 149.786,167.092 149.286,169.005 149.130 C 170.575 149.002,170.603 148.972,170.800 147.200 L 171.000 145.400 173.095 145.028 C 175.094 144.673,175.202 144.590,175.427 143.228 C 175.811 140.898,175.895 140.800,177.507 140.800 C 179.433 140.800,180.000 140.239,180.000 138.334 L 180.000 136.828 182.031 136.558 C 184.188 136.272,184.800 135.568,184.800 133.374 C 184.800 132.511,184.975 132.400,186.338 132.400 C 187.361 132.400,188.115 132.136,188.591 131.610 C 188.984 131.176,189.641 130.714,190.052 130.584 C 190.462 130.453,190.911 129.896,191.050 129.344 C 191.188 128.793,191.684 128.167,192.151 127.954 C 194.689 126.794,196.000 125.719,196.000 124.797 C 196.000 123.938,197.637 122.802,198.886 122.794 C 200.221 122.785,200.682 122.366,201.086 120.799 C 201.537 119.049,206.680 118.390,211.849 119.420 M202.000 124.336 C 202.000 125.405,205.848 126.244,207.798 125.601 C 208.562 125.348,209.539 125.254,209.969 125.390 C 210.664 125.611,211.600 124.713,211.600 123.826 C 211.600 123.702,209.440 123.600,206.800 123.600 C 202.405 123.600,202.000 123.662,202.000 124.336 M197.228 128.300 C 197.378 129.899,197.843 130.097,199.022 129.061 L 200.200 128.025 198.700 128.013 C 197.875 128.006,197.213 128.135,197.228 128.300 M231.600 141.351 C 231.600 141.434,231.870 141.726,232.200 142.000 C 232.691 142.408,232.800 142.380,232.800 141.849 C 232.800 141.492,232.530 141.200,232.200 141.200 C 231.870 141.200,231.600 141.268,231.600 141.351 M240.189 150.018 C 239.912 150.466,240.671 151.600,241.249 151.600 C 241.442 151.600,241.600 151.150,241.600 150.600 C 241.600 149.585,240.689 149.209,240.189 150.018 M201.880 151.248 C 200.839 151.831,200.288 152.458,200.132 153.238 C 200.007 153.864,199.566 154.484,199.152 154.615 C 198.738 154.747,198.213 155.202,197.986 155.627 C 197.758 156.052,197.312 156.400,196.995 156.400 C 196.678 156.400,196.102 156.895,195.716 157.500 C 194.856 158.847,193.810 159.664,192.214 160.234 C 191.394 160.527,190.956 160.981,190.865 161.634 C 190.667 163.049,189.241 164.400,187.944 164.400 C 186.799 164.400,186.000 165.317,186.000 166.630 C 186.000 167.534,184.846 168.371,183.580 168.387 C 182.264 168.404,181.600 169.090,181.600 170.431 C 181.600 171.778,181.031 172.238,178.939 172.583 C 177.234 172.864,176.818 173.425,176.805 175.457 C 176.799 176.402,176.100 176.800,174.447 176.800 C 173.004 176.800,172.400 177.476,172.400 179.090 C 172.400 180.513,171.418 181.200,169.382 181.200 C 168.406 181.200,168.179 181.632,167.912 183.990 C 167.818 184.824,167.519 185.029,166.029 185.282 C 163.848 185.652,163.591 185.899,163.326 187.873 C 163.128 189.349,163.030 189.448,161.659 189.540 C 160.857 189.594,160.021 189.819,159.801 190.039 C 159.336 190.503,158.985 221.574,159.400 225.500 L 159.664 228.000 206.600 228.000 L 253.536 228.000 253.802 225.500 C 253.948 224.125,254.008 215.620,253.934 206.600 L 253.800 190.200 252.653 188.700 C 252.021 187.875,251.261 187.200,250.962 187.200 C 250.663 187.200,250.124 186.750,249.763 186.200 C 249.403 185.650,248.724 185.198,248.254 185.195 C 246.317 185.182,245.680 184.751,245.402 183.263 C 245.025 181.249,244.547 180.800,242.776 180.800 C 241.272 180.800,241.245 180.772,240.978 178.995 C 240.668 176.924,240.601 176.860,238.306 176.471 C 236.636 176.188,236.596 176.144,236.400 174.391 L 236.200 172.600 234.100 172.227 C 232.005 171.855,232.000 171.850,232.000 170.351 C 232.000 168.638,231.640 168.314,229.407 168.014 C 227.947 167.818,227.794 167.681,227.584 166.386 C 227.288 164.565,226.922 164.000,226.036 164.000 C 224.174 164.000,222.970 163.200,222.871 161.897 C 222.749 160.293,222.554 160.103,220.630 159.703 C 219.031 159.371,218.749 159.064,218.139 157.000 C 217.864 156.066,217.521 155.770,216.593 155.667 C 214.954 155.483,214.141 154.640,213.850 152.825 C 213.539 150.877,213.204 150.751,207.800 150.556 C 203.878 150.414,203.235 150.489,201.880 151.248 M207.405 154.008 C 207.543 154.232,208.499 154.842,209.528 155.364 C 210.558 155.885,212.250 157.187,213.288 158.256 C 214.326 159.325,216.216 161.136,217.488 162.281 C 226.983 170.825,230.921 174.389,233.028 176.345 C 234.363 177.585,236.667 179.680,238.147 181.000 C 245.763 187.791,250.750 193.191,251.007 194.923 C 251.460 197.985,251.047 223.914,250.536 224.425 C 249.064 225.894,246.459 225.987,206.514 225.994 C 165.199 226.000,165.123 225.997,163.200 224.149 C 162.433 223.412,162.076 198.883,162.783 195.485 C 163.312 192.943,165.374 190.613,174.000 182.813 C 181.406 176.115,183.867 173.876,186.545 171.400 C 187.734 170.300,189.854 168.348,191.254 167.062 C 192.654 165.776,195.567 163.026,197.727 160.950 C 199.887 158.875,202.317 156.755,203.127 156.240 C 203.937 155.725,204.943 154.920,205.362 154.452 C 206.184 153.533,207.002 153.355,207.405 154.008 M188.134 157.827 C 187.801 158.696,188.647 159.513,189.253 158.907 C 189.765 158.395,189.448 157.200,188.800 157.200 C 188.566 157.200,188.267 157.482,188.134 157.827 M162.557 159.033 C 162.691 159.381,162.800 159.827,162.800 160.024 C 162.800 160.221,163.250 160.178,163.800 159.927 C 165.218 159.281,165.078 158.400,163.557 158.400 C 162.588 158.400,162.368 158.539,162.557 159.033 M179.000 167.200 C 178.864 167.420,179.123 167.600,179.576 167.600 C 180.029 167.600,180.400 167.420,180.400 167.200 C 180.400 166.980,180.141 166.800,179.824 166.800 C 179.507 166.800,179.136 166.980,179.000 167.200 M258.320 167.680 C 258.693 168.053,258.907 168.053,259.280 167.680 C 259.653 167.307,259.547 167.200,258.800 167.200 C 258.053 167.200,257.947 167.307,258.320 167.680 M141.225 181.220 C 141.249 182.517,141.274 182.542,141.638 181.632 C 141.894 180.991,141.885 180.525,141.612 180.252 C 141.329 179.969,141.208 180.273,141.225 181.220 M141.263 189.200 C 141.263 191.137,141.311 191.268,141.665 190.300 C 141.934 189.563,141.934 188.837,141.665 188.100 C 141.311 187.132,141.263 187.263,141.263 189.200 M141.238 211.000 C 141.228 225.508,141.339 230.402,141.667 229.838 C 142.242 228.847,142.223 193.837,141.646 192.392 C 141.377 191.717,141.246 197.660,141.238 211.000 M153.280 192.880 C 152.937 193.223,152.801 195.762,152.802 201.780 C 152.804 206.411,152.592 212.036,152.333 214.279 C 151.840 218.536,152.003 219.788,153.495 223.200 C 154.548 225.610,154.718 223.591,154.760 208.133 C 154.804 192.222,154.727 191.433,153.280 192.880 M258.605 193.244 C 258.198 194.304,258.580 224.202,259.000 224.158 C 259.826 224.071,260.406 219.938,259.936 217.492 C 259.609 215.790,259.612 214.591,259.946 212.925 C 260.519 210.075,260.524 207.019,259.962 204.395 C 259.653 202.957,259.645 201.658,259.935 200.015 C 260.458 197.046,259.336 191.337,258.605 193.244 M141.214 232.567 C 141.199 234.636,141.240 234.685,141.910 233.393 C 142.217 232.802,142.182 232.322,141.778 231.593 C 141.251 230.641,141.228 230.680,141.214 232.567 M140.999 248.407 C 140.689 250.239,141.086 250.972,142.163 250.559 C 142.936 250.262,142.778 248.875,141.816 247.501 C 141.324 246.799,141.258 246.873,140.999 248.407 M147.294 251.893 C 145.544 252.051,144.017 253.456,144.589 254.382 C 144.869 254.835,268.194 255.007,269.367 254.557 C 270.234 254.225,270.161 253.469,269.176 252.578 C 268.015 251.528,182.076 251.144,178.111 252.171 C 176.510 252.586,175.139 252.684,173.784 252.481 C 172.693 252.317,170.900 252.306,169.800 252.457 C 165.894 252.990,154.731 252.826,152.400 252.200 C 151.190 251.875,149.930 251.639,149.600 251.675 C 149.270 251.710,148.232 251.809,147.294 251.893 " stroke="none" fill="#2a557f" fill-rule="evenodd"></path><path id="path2" d="M203.823 119.176 C 201.506 119.394,201.438 119.435,201.086 120.799 C 200.682 122.366,200.221 122.785,198.886 122.794 C 197.637 122.802,196.000 123.938,196.000 124.797 C 196.000 125.719,194.689 126.794,192.151 127.954 C 191.684 128.167,191.188 128.793,191.050 129.344 C 190.911 129.896,190.462 130.453,190.052 130.584 C 189.641 130.714,188.984 131.176,188.591 131.610 C 188.115 132.136,187.361 132.400,186.338 132.400 C 184.975 132.400,184.800 132.511,184.800 133.374 C 184.800 135.568,184.188 136.272,182.031 136.558 L 180.000 136.828 180.000 138.334 C 180.000 140.239,179.433 140.800,177.507 140.800 C 175.895 140.800,175.811 140.898,175.427 143.228 C 175.202 144.590,175.094 144.673,173.095 145.028 L 171.000 145.400 170.800 147.200 C 170.603 148.972,170.575 149.002,169.005 149.130 C 167.092 149.286,166.400 149.786,166.400 151.016 C 166.400 152.280,166.003 153.200,165.457 153.202 C 163.302 153.213,162.035 154.062,161.710 155.713 C 161.399 157.299,161.290 157.407,159.900 157.524 C 158.394 157.649,156.800 159.064,156.800 160.274 C 156.800 160.586,156.182 161.099,155.427 161.414 C 154.672 161.730,153.942 162.171,153.804 162.394 C 153.666 162.617,153.237 162.800,152.851 162.800 C 152.465 162.800,151.530 163.627,150.774 164.638 C 149.182 166.766,148.514 167.200,146.826 167.200 C 145.794 167.200,145.600 167.354,145.600 168.174 C 145.600 170.076,144.900 171.200,143.710 171.205 C 141.334 171.217,140.800 171.583,140.800 173.198 C 140.800 174.939,140.222 175.549,138.275 175.865 L 136.879 176.092 136.411 179.946 C 135.898 184.165,136.072 250.499,136.603 253.300 C 136.861 254.662,137.006 254.800,138.167 254.800 C 139.829 254.800,140.814 255.551,141.360 257.235 C 141.997 259.201,138.597 259.101,206.600 259.148 C 274.192 259.195,272.000 259.247,272.000 257.576 C 272.000 256.017,272.970 255.200,274.821 255.200 C 277.234 255.200,277.263 254.702,277.248 213.854 C 277.234 175.277,277.229 175.200,274.610 175.200 C 273.077 175.200,272.745 174.839,272.416 172.814 C 272.203 171.501,272.065 171.384,270.486 171.172 C 268.372 170.889,268.085 170.601,267.927 168.600 L 267.800 167.000 265.802 166.800 L 263.804 166.600 263.467 164.748 C 263.134 162.910,263.117 162.895,261.316 162.692 C 259.285 162.463,258.815 161.982,258.806 160.125 C 258.800 158.920,258.700 158.834,256.990 158.578 C 255.994 158.428,254.956 158.012,254.684 157.653 C 254.411 157.294,253.831 156.805,253.394 156.567 C 252.957 156.329,252.436 155.776,252.235 155.338 C 251.847 154.489,249.894 153.200,248.996 153.200 C 248.146 153.200,247.200 152.034,247.200 150.986 C 247.200 149.956,246.091 149.130,244.400 148.900 C 243.227 148.740,242.400 147.791,242.400 146.604 C 242.400 145.495,241.666 144.800,240.494 144.800 C 238.835 144.800,238.000 144.085,238.000 142.666 C 238.000 141.039,237.389 140.402,235.820 140.394 C 234.079 140.385,233.677 139.999,233.530 138.197 C 233.402 136.624,233.374 136.599,231.400 136.250 C 228.957 135.818,229.100 135.949,228.826 133.893 C 228.622 132.362,228.485 132.189,227.400 132.090 C 224.649 131.839,224.453 131.700,224.323 129.907 C 224.202 128.247,224.170 128.213,222.429 127.918 C 220.323 127.561,219.998 127.286,219.647 125.567 C 219.442 124.566,219.101 124.178,218.190 123.911 C 217.535 123.720,216.460 123.318,215.800 123.020 C 215.140 122.722,214.281 122.374,213.892 122.248 C 213.502 122.122,213.074 121.472,212.941 120.804 C 212.779 119.995,212.415 119.533,211.849 119.420 C 210.138 119.080,206.138 118.958,203.823 119.176 M211.600 123.826 C 211.600 124.713,210.664 125.611,209.969 125.390 C 209.539 125.254,208.562 125.348,207.798 125.601 C 205.848 126.244,202.000 125.405,202.000 124.336 C 202.000 123.662,202.405 123.600,206.800 123.600 C 209.440 123.600,211.600 123.702,211.600 123.826 M199.022 129.061 C 197.918 130.031,197.826 130.049,197.550 129.348 C 197.059 128.099,197.145 128.000,198.700 128.013 L 200.200 128.025 199.022 129.061 M232.800 141.849 C 232.800 142.380,232.691 142.408,232.200 142.000 C 231.870 141.726,231.600 141.434,231.600 141.351 C 231.600 141.268,231.870 141.200,232.200 141.200 C 232.530 141.200,232.800 141.492,232.800 141.849 M241.600 150.600 C 241.600 151.724,241.136 151.887,240.415 151.018 C 239.858 150.347,240.180 149.600,241.024 149.600 C 241.372 149.600,241.600 149.996,241.600 150.600 M212.902 151.001 C 213.324 151.173,213.703 151.901,213.850 152.825 C 214.141 154.640,214.954 155.483,216.593 155.667 C 217.521 155.770,217.864 156.066,218.139 157.000 C 218.749 159.064,219.031 159.371,220.630 159.703 C 222.554 160.103,222.749 160.293,222.871 161.897 C 222.970 163.200,224.174 164.000,226.036 164.000 C 226.922 164.000,227.288 164.565,227.584 166.386 C 227.794 167.681,227.947 167.818,229.407 168.014 C 231.640 168.314,232.000 168.638,232.000 170.351 C 232.000 171.850,232.005 171.855,234.100 172.227 L 236.200 172.600 236.400 174.391 C 236.596 176.144,236.636 176.188,238.306 176.471 C 240.601 176.860,240.668 176.924,240.978 178.995 C 241.245 180.772,241.272 180.800,242.776 180.800 C 244.547 180.800,245.025 181.249,245.402 183.263 C 245.680 184.751,246.317 185.182,248.254 185.195 C 248.724 185.198,249.403 185.650,249.763 186.200 C 250.124 186.750,250.663 187.200,250.962 187.200 C 251.261 187.200,252.021 187.875,252.653 188.700 L 253.800 190.200 253.934 206.600 C 254.008 215.620,253.948 224.125,253.802 225.500 L 253.536 228.000 206.600 228.000 L 159.664 228.000 159.400 225.500 C 158.985 221.574,159.336 190.503,159.801 190.039 C 160.021 189.819,160.857 189.594,161.659 189.540 C 163.030 189.448,163.128 189.349,163.326 187.873 C 163.591 185.899,163.848 185.652,166.029 185.282 C 167.519 185.029,167.818 184.824,167.912 183.990 C 168.179 181.632,168.406 181.200,169.382 181.200 C 171.418 181.200,172.400 180.513,172.400 179.090 C 172.400 177.476,173.004 176.800,174.447 176.800 C 176.100 176.800,176.799 176.402,176.805 175.457 C 176.818 173.425,177.234 172.864,178.939 172.583 C 181.031 172.238,181.600 171.778,181.600 170.431 C 181.600 169.090,182.264 168.404,183.580 168.387 C 184.846 168.371,186.000 167.534,186.000 166.630 C 186.000 165.317,186.799 164.400,187.944 164.400 C 189.241 164.400,190.667 163.049,190.865 161.634 C 190.956 160.981,191.394 160.527,192.214 160.234 C 193.810 159.664,194.856 158.847,195.716 157.500 C 196.102 156.895,196.678 156.400,196.995 156.400 C 197.312 156.400,197.758 156.052,197.986 155.627 C 198.213 155.202,198.738 154.747,199.152 154.615 C 199.566 154.484,200.007 153.864,200.132 153.238 C 200.617 150.814,208.888 149.365,212.902 151.001 M189.466 157.827 C 189.799 158.696,188.953 159.513,188.347 158.907 C 187.835 158.395,188.152 157.200,188.800 157.200 C 189.034 157.200,189.333 157.482,189.466 157.827 M164.800 158.936 C 164.800 159.230,164.350 159.677,163.800 159.927 C 163.250 160.178,162.800 160.221,162.800 160.024 C 162.800 159.827,162.691 159.381,162.557 159.033 C 162.368 158.539,162.588 158.400,163.557 158.400 C 164.329 158.400,164.800 158.603,164.800 158.936 M180.400 167.200 C 180.400 167.420,180.029 167.600,179.576 167.600 C 179.123 167.600,178.864 167.420,179.000 167.200 C 179.136 166.980,179.507 166.800,179.824 166.800 C 180.141 166.800,180.400 166.980,180.400 167.200 M259.280 167.680 C 258.907 168.053,258.693 168.053,258.320 167.680 C 257.947 167.307,258.053 167.200,258.800 167.200 C 259.547 167.200,259.653 167.307,259.280 167.680 M141.638 181.632 C 141.274 182.542,141.249 182.517,141.225 181.220 C 141.208 180.273,141.329 179.969,141.612 180.252 C 141.885 180.525,141.894 180.991,141.638 181.632 M141.665 190.300 C 141.311 191.268,141.263 191.137,141.263 189.200 C 141.263 187.263,141.311 187.132,141.665 188.100 C 141.934 188.837,141.934 189.563,141.665 190.300 M142.076 211.230 C 142.099 223.600,141.974 229.310,141.667 229.838 C 141.339 230.402,141.228 225.508,141.238 211.000 C 141.246 197.660,141.377 191.717,141.646 192.392 C 141.885 192.989,142.056 200.480,142.076 211.230 M154.557 193.033 C 154.911 193.953,154.777 222.416,154.413 223.600 C 154.108 224.596,154.104 224.594,153.495 223.200 C 152.003 219.788,151.840 218.536,152.333 214.279 C 152.592 212.036,152.804 206.411,152.802 201.780 C 152.801 195.762,152.937 193.223,153.280 192.880 C 153.925 192.235,154.267 192.276,154.557 193.033 M259.821 195.421 C 260.215 197.116,260.244 198.261,259.935 200.015 C 259.645 201.658,259.653 202.957,259.962 204.395 C 260.524 207.019,260.519 210.075,259.946 212.925 C 259.612 214.591,259.609 215.790,259.936 217.492 C 260.406 219.938,259.826 224.071,259.000 224.158 C 258.580 224.202,258.198 194.304,258.605 193.244 C 258.933 192.389,259.247 192.951,259.821 195.421 M141.910 233.393 C 141.240 234.685,141.199 234.636,141.214 232.567 C 141.228 230.680,141.251 230.641,141.778 231.593 C 142.182 232.322,142.217 232.802,141.910 233.393 M142.605 249.278 C 142.793 250.028,142.678 250.361,142.163 250.559 C 141.086 250.972,140.689 250.239,140.999 248.407 C 141.307 246.584,142.027 246.975,142.605 249.278 M152.400 252.200 C 154.731 252.826,165.894 252.990,169.800 252.457 C 170.900 252.306,172.693 252.317,173.784 252.481 C 175.139 252.684,176.510 252.586,178.111 252.171 C 182.076 251.144,268.015 251.528,269.176 252.578 C 270.161 253.469,270.234 254.225,269.367 254.557 C 268.194 255.007,144.869 254.835,144.589 254.382 C 144.017 253.456,145.544 252.051,147.294 251.893 C 148.232 251.809,149.270 251.710,149.600 251.675 C 149.930 251.639,151.190 251.875,152.400 252.200 " stroke="none" fill="#194870" fill-rule="evenodd"></path><path id="path3" d="M0.000 200.000 L 0.000 400.000 200.000 400.000 L 400.000 400.000 400.000 200.000 L 400.000 0.000 200.000 0.000 L 0.000 0.000 0.000 200.000 M226.540 43.245 C 228.707 43.471,232.194 44.183,234.289 44.827 C 236.384 45.472,238.571 46.000,239.149 46.001 C 243.813 46.005,253.472 48.006,255.600 49.409 C 256.439 49.962,258.642 50.661,261.097 51.154 C 265.043 51.946,267.123 52.706,268.406 53.825 C 268.739 54.116,270.796 54.817,272.978 55.384 C 275.561 56.055,277.422 56.795,278.317 57.507 C 280.255 59.049,280.278 59.060,283.546 60.002 C 285.658 60.610,286.893 61.240,287.907 62.226 C 288.686 62.981,289.610 63.600,289.961 63.600 C 291.111 63.601,295.528 65.917,295.975 66.754 C 296.216 67.204,297.326 67.893,298.443 68.286 C 299.559 68.679,301.374 69.768,302.477 70.707 C 303.580 71.646,305.274 72.878,306.241 73.445 C 307.208 74.012,308.357 74.978,308.793 75.591 C 309.230 76.204,310.383 77.080,311.355 77.537 C 312.327 77.994,313.509 78.911,313.982 79.574 C 314.454 80.238,315.626 81.128,316.587 81.553 C 317.547 81.978,318.645 82.802,319.027 83.386 C 319.410 83.969,320.376 84.780,321.176 85.188 C 322.594 85.911,328.264 90.949,330.998 93.916 C 331.751 94.732,333.911 97.020,335.799 99.000 C 337.686 100.980,339.850 103.524,340.606 104.654 C 341.362 105.783,342.264 106.816,342.610 106.949 C 342.957 107.081,343.677 108.146,344.212 109.314 C 344.747 110.482,345.728 111.840,346.393 112.331 C 347.057 112.823,348.159 114.344,348.841 115.712 C 349.523 117.081,350.684 118.830,351.421 119.600 C 352.158 120.370,353.123 121.821,353.566 122.825 C 354.009 123.829,354.759 124.999,355.233 125.425 C 355.707 125.851,356.705 127.498,357.449 129.084 C 358.193 130.670,359.239 132.612,359.773 133.398 C 360.307 134.185,361.229 136.308,361.823 138.115 C 362.416 139.922,363.230 141.762,363.631 142.205 C 364.755 143.445,365.483 145.498,366.407 150.040 C 366.953 152.725,367.534 154.499,368.044 155.044 C 369.346 156.434,370.334 159.655,370.998 164.666 C 371.342 167.270,371.963 170.570,372.378 172.000 C 377.129 188.391,377.042 218.301,372.203 232.200 C 371.896 233.080,371.532 235.060,371.392 236.600 C 370.943 241.558,369.701 246.456,368.435 248.262 C 367.585 249.474,366.990 251.206,366.234 254.662 C 365.464 258.182,364.887 259.843,363.991 261.122 C 363.328 262.070,362.246 264.410,361.587 266.322 C 360.928 268.235,360.040 270.250,359.614 270.800 C 359.189 271.350,358.175 273.191,357.361 274.891 C 356.548 276.592,355.527 278.302,355.094 278.691 C 354.661 279.081,353.894 280.330,353.390 281.467 C 352.886 282.603,351.987 283.852,351.392 284.242 C 350.742 284.668,349.792 286.090,349.008 287.811 C 348.159 289.674,347.255 290.991,346.415 291.589 C 345.706 292.094,344.803 293.260,344.409 294.179 C 344.015 295.099,343.150 296.307,342.488 296.865 C 341.826 297.422,340.994 298.438,340.641 299.122 C 340.287 299.806,339.233 301.178,338.299 302.172 C 337.364 303.165,336.240 304.361,335.800 304.829 C 329.445 311.588,322.462 318.191,320.970 318.853 C 320.058 319.257,319.136 320.023,318.878 320.589 C 318.594 321.211,317.568 322.004,316.222 322.642 C 315.016 323.213,313.920 324.022,313.788 324.439 C 313.655 324.856,312.721 325.681,311.712 326.272 C 310.703 326.864,308.870 328.232,307.639 329.313 C 306.408 330.393,304.704 331.634,303.853 332.071 C 303.003 332.507,301.923 333.309,301.453 333.854 C 300.984 334.398,299.531 335.278,298.223 335.808 C 296.916 336.339,295.694 337.045,295.508 337.379 C 295.038 338.218,292.127 339.849,290.187 340.359 C 289.300 340.593,287.917 341.385,287.115 342.120 C 286.178 342.979,284.753 343.712,283.128 344.173 C 279.496 345.203,278.489 345.610,277.940 346.272 C 277.130 347.249,274.770 348.245,271.444 349.015 C 269.603 349.442,267.835 350.127,267.200 350.662 C 265.711 351.914,264.558 352.305,259.028 353.433 C 256.403 353.969,253.973 354.657,253.628 354.962 C 252.403 356.045,248.915 356.878,242.407 357.642 C 238.374 358.115,234.724 358.786,233.007 359.369 C 227.532 361.229,225.339 361.400,207.000 361.400 C 188.645 361.400,186.216 361.209,181.317 359.377 C 179.737 358.786,176.753 358.218,173.117 357.815 C 166.064 357.033,164.058 356.598,161.000 355.190 C 159.680 354.582,156.620 353.686,154.200 353.199 C 149.756 352.304,148.060 351.681,146.600 350.409 C 146.160 350.026,144.180 349.319,142.200 348.838 C 139.842 348.266,137.910 347.503,136.600 346.626 C 135.500 345.890,133.880 345.065,133.000 344.793 C 129.125 343.596,128.044 343.111,126.828 342.025 C 126.116 341.390,125.009 340.674,124.367 340.435 C 123.725 340.196,122.667 339.801,122.015 339.558 C 121.363 339.314,120.324 338.632,119.706 338.041 C 119.087 337.450,117.346 336.434,115.836 335.783 C 114.238 335.094,112.741 334.131,112.254 333.478 C 111.794 332.861,110.688 332.034,109.796 331.639 C 108.903 331.245,107.730 330.396,107.187 329.754 C 106.644 329.112,105.364 328.098,104.342 327.501 C 103.319 326.904,101.699 325.677,100.742 324.775 C 99.784 323.873,98.329 322.789,97.510 322.364 C 96.690 321.940,95.610 321.032,95.110 320.347 C 94.609 319.661,93.432 318.767,92.493 318.361 C 91.443 317.907,90.483 317.109,89.999 316.288 C 89.566 315.554,88.585 314.655,87.819 314.290 C 87.053 313.924,85.968 312.900,85.408 312.013 C 84.848 311.126,84.203 310.400,83.974 310.400 C 83.390 310.400,77.432 304.415,76.806 303.200 C 76.522 302.650,75.675 301.684,74.923 301.053 C 74.171 300.421,73.275 299.205,72.933 298.349 C 72.579 297.465,71.797 296.491,71.122 296.096 C 70.469 295.713,69.325 294.320,68.580 293.000 C 67.835 291.680,66.410 289.611,65.413 288.403 C 64.416 287.194,63.600 285.987,63.600 285.719 C 63.600 285.451,63.156 284.820,62.613 284.316 C 62.071 283.812,61.066 282.241,60.380 280.824 C 59.694 279.408,58.554 277.572,57.846 276.746 C 57.050 275.816,56.199 274.067,55.614 272.160 C 55.094 270.465,54.183 268.520,53.590 267.839 C 52.040 266.059,51.387 264.598,50.622 261.200 C 50.251 259.550,49.608 257.838,49.194 257.396 C 48.288 256.429,46.618 252.742,46.206 250.800 C 46.043 250.030,45.587 248.680,45.193 247.800 C 44.799 246.920,43.903 243.500,43.202 240.200 C 42.501 236.900,41.325 231.860,40.588 228.999 C 37.607 217.428,37.532 185.191,40.464 175.402 C 41.274 172.697,42.944 165.350,43.609 161.562 C 44.200 158.201,47.657 148.442,48.832 146.820 C 49.529 145.857,50.243 144.078,50.641 142.315 C 51.352 139.163,52.355 136.867,53.400 136.000 C 54.231 135.310,55.597 132.661,55.609 131.716 C 55.623 130.585,56.985 127.872,58.188 126.581 C 58.793 125.931,59.821 124.277,60.471 122.904 C 61.122 121.531,61.976 120.181,62.370 119.904 C 62.763 119.627,63.216 118.987,63.376 118.481 C 63.535 117.976,64.517 116.536,65.558 115.281 C 66.599 114.027,67.970 112.041,68.606 110.869 C 69.247 109.686,70.256 108.482,70.872 108.163 C 71.564 107.805,72.377 106.753,73.033 105.367 C 73.647 104.070,74.480 102.964,75.035 102.711 C 75.557 102.473,76.094 101.934,76.228 101.512 C 76.499 100.659,83.378 93.600,83.938 93.600 C 84.134 93.600,84.774 92.874,85.361 91.987 C 85.949 91.099,87.008 90.092,87.715 89.749 C 88.422 89.406,89.360 88.557,89.800 87.863 C 90.240 87.168,91.392 86.220,92.360 85.755 C 93.328 85.291,94.368 84.436,94.672 83.856 C 94.976 83.276,96.113 82.351,97.198 81.801 C 98.283 81.251,99.363 80.443,99.597 80.006 C 99.831 79.568,101.053 78.555,102.311 77.755 C 103.570 76.954,105.422 75.536,106.427 74.602 C 107.432 73.668,108.902 72.670,109.694 72.384 C 110.486 72.098,111.327 71.440,111.562 70.924 C 111.829 70.339,113.086 69.456,114.895 68.584 C 116.493 67.813,118.672 66.559,119.737 65.797 C 120.802 65.035,122.387 64.219,123.259 63.984 C 124.131 63.749,125.149 63.192,125.522 62.745 C 126.438 61.649,129.349 60.216,131.863 59.624 C 133.046 59.345,134.477 58.646,135.220 57.982 C 135.932 57.346,137.344 56.574,138.357 56.266 C 139.371 55.958,141.276 55.390,142.591 55.004 C 143.906 54.618,145.526 53.896,146.191 53.400 C 147.618 52.337,149.016 51.881,153.600 50.987 C 155.479 50.620,157.895 49.826,159.000 49.212 C 161.455 47.848,161.477 47.843,170.080 46.612 C 173.922 46.062,177.862 45.326,178.833 44.977 C 185.112 42.723,212.093 41.744,226.540 43.245 M189.180 84.193 C 186.640 84.470,184.027 84.972,183.375 85.309 C 181.423 86.319,178.107 87.131,172.423 87.992 C 168.562 88.576,166.813 89.017,166.223 89.556 C 164.896 90.766,163.198 91.467,160.000 92.125 C 156.219 92.903,154.982 93.376,153.528 94.599 C 152.890 95.136,150.890 96.041,149.084 96.610 C 147.028 97.258,145.351 98.073,144.600 98.788 C 143.940 99.417,142.255 100.392,140.856 100.956 C 139.456 101.519,137.520 102.709,136.553 103.601 C 135.586 104.492,134.247 105.331,133.577 105.465 C 132.842 105.612,131.942 106.253,131.311 107.081 C 130.736 107.835,129.598 108.793,128.783 109.209 C 127.968 109.624,126.783 110.518,126.151 111.194 C 125.518 111.870,123.885 113.152,122.523 114.043 C 121.161 114.935,119.607 116.240,119.070 116.944 C 118.533 117.648,117.442 118.575,116.645 119.004 C 115.848 119.433,115.098 120.092,114.979 120.468 C 114.708 121.319,112.150 123.600,111.466 123.600 C 111.187 123.600,110.584 124.373,110.125 125.317 C 109.666 126.262,108.670 127.460,107.912 127.980 C 107.153 128.499,106.125 129.694,105.626 130.633 C 105.127 131.573,103.914 133.285,102.930 134.438 C 101.946 135.591,100.785 137.292,100.350 138.217 C 99.915 139.142,99.119 140.313,98.580 140.819 C 98.041 141.325,97.600 141.953,97.600 142.215 C 97.600 142.477,96.520 144.316,95.200 146.303 C 93.880 148.290,92.798 150.249,92.796 150.658 C 92.790 151.871,90.974 155.407,89.795 156.499 C 88.911 157.319,88.520 158.330,87.771 161.727 C 87.260 164.044,86.318 166.988,85.678 168.270 C 84.245 171.140,83.448 174.490,82.411 182.000 C 81.971 185.190,81.342 189.510,81.013 191.600 C 80.047 197.734,80.202 207.975,81.365 214.875 C 81.895 218.024,82.541 222.220,82.800 224.200 C 83.450 229.172,84.567 233.566,85.795 235.991 C 86.365 237.115,87.262 239.942,87.789 242.271 C 88.555 245.661,88.982 246.755,89.928 247.753 C 91.346 249.248,92.152 250.782,92.793 253.200 C 93.055 254.190,93.686 255.450,94.196 256.000 C 94.706 256.550,95.784 258.260,96.591 259.800 C 97.399 261.340,98.484 263.050,99.004 263.600 C 99.523 264.150,100.309 265.443,100.749 266.474 C 101.189 267.505,102.002 268.645,102.555 269.008 C 103.109 269.370,104.135 270.687,104.837 271.933 C 105.539 273.180,106.999 275.060,108.082 276.112 C 109.164 277.163,110.230 278.541,110.451 279.174 C 110.691 279.862,111.332 280.523,112.046 280.819 C 112.702 281.091,113.892 282.109,114.689 283.082 C 115.486 284.055,116.602 285.093,117.169 285.388 C 117.736 285.684,119.010 286.686,120.000 287.615 C 120.990 288.545,122.744 289.916,123.898 290.663 C 125.052 291.411,126.301 292.488,126.675 293.058 C 127.048 293.628,128.135 294.429,129.091 294.839 C 130.100 295.271,131.109 296.074,131.499 296.754 C 131.930 297.504,132.905 298.228,134.219 298.772 C 135.345 299.239,136.967 300.263,137.823 301.047 C 139.511 302.593,140.806 303.346,142.459 303.741 C 143.041 303.881,144.272 304.625,145.194 305.395 C 146.308 306.326,147.986 307.136,150.196 307.810 C 152.069 308.382,154.172 309.342,155.014 310.011 C 156.521 311.209,156.875 311.330,162.514 312.583 C 164.461 313.016,166.062 313.641,166.789 314.252 C 168.027 315.294,171.026 316.012,177.433 316.799 C 181.243 317.268,183.988 317.960,185.849 318.921 C 190.516 321.332,223.548 321.247,228.399 318.812 C 230.255 317.880,232.635 317.362,239.594 316.373 C 244.460 315.682,245.659 315.371,247.077 314.432 C 248.757 313.319,249.598 313.041,255.067 311.787 C 256.950 311.356,258.347 310.762,259.135 310.058 C 259.819 309.448,261.858 308.496,263.868 307.850 C 266.057 307.146,267.856 306.285,268.600 305.588 C 269.260 304.968,271.060 303.965,272.600 303.358 C 274.329 302.677,275.959 301.686,276.860 300.768 C 277.663 299.950,278.880 299.158,279.565 299.008 C 280.299 298.846,281.231 298.181,281.838 297.386 C 282.404 296.644,283.643 295.582,284.592 295.026 C 285.541 294.470,287.281 293.186,288.459 292.174 C 289.636 291.161,291.230 290.001,292.000 289.595 C 292.770 289.190,293.890 288.230,294.490 287.463 C 295.089 286.696,296.182 285.870,296.919 285.627 C 297.830 285.326,298.470 284.742,298.918 283.804 C 299.280 283.044,300.191 282.020,300.942 281.527 C 301.694 281.035,302.641 280.014,303.047 279.260 C 303.454 278.505,304.459 277.443,305.280 276.899 C 306.102 276.356,306.894 275.535,307.039 275.076 C 307.185 274.618,308.159 273.333,309.203 272.221 C 310.247 271.109,311.558 269.300,312.116 268.200 C 312.674 267.100,313.867 265.510,314.766 264.666 C 315.664 263.823,316.400 262.830,316.400 262.460 C 316.400 261.617,317.812 258.948,319.021 257.506 C 319.525 256.905,320.325 255.375,320.799 254.106 C 321.272 252.838,322.157 250.990,322.764 250.000 C 323.372 249.010,324.275 246.978,324.772 245.484 C 325.269 243.990,326.297 241.845,327.055 240.718 C 328.270 238.913,328.527 238.053,329.215 233.500 C 330.086 227.737,330.854 224.478,331.945 221.919 C 334.838 215.133,334.613 189.631,331.584 180.933 C 330.958 179.136,329.982 174.872,329.416 171.457 C 328.503 165.957,328.229 165.011,327.014 163.165 C 326.259 162.020,325.255 159.806,324.781 158.246 C 324.307 156.686,323.587 154.943,323.180 154.372 C 322.773 153.801,321.795 151.917,321.006 150.186 C 320.218 148.455,319.136 146.467,318.602 145.767 C 318.069 145.068,317.183 143.479,316.633 142.237 C 316.084 140.995,315.023 139.399,314.275 138.690 C 313.527 137.980,312.394 136.277,311.758 134.904 C 311.121 133.531,310.394 132.406,310.141 132.404 C 309.545 132.399,307.200 129.727,307.200 129.053 C 307.200 128.768,306.480 127.956,305.601 127.249 C 304.721 126.542,303.743 125.464,303.427 124.852 C 303.111 124.241,302.149 123.276,301.290 122.707 C 300.430 122.138,299.502 121.128,299.226 120.463 C 298.892 119.656,298.134 118.975,296.952 118.420 C 295.970 117.958,294.842 117.031,294.422 116.340 C 294.005 115.655,293.029 114.803,292.252 114.447 C 291.475 114.091,290.155 113.167,289.320 112.393 C 288.484 111.619,286.885 110.405,285.768 109.695 C 284.650 108.985,283.238 107.845,282.629 107.162 C 282.021 106.480,280.730 105.570,279.759 105.141 C 278.789 104.711,277.605 103.833,277.128 103.188 C 276.652 102.544,275.618 101.808,274.831 101.554 C 272.616 100.837,269.877 99.372,269.058 98.465 C 268.650 98.014,266.800 97.162,264.946 96.571 C 262.855 95.906,261.109 95.062,260.346 94.350 C 259.413 93.478,258.153 92.969,255.124 92.239 C 252.639 91.640,250.361 90.798,249.092 90.009 C 247.371 88.939,246.238 88.622,241.826 87.978 C 235.229 87.013,234.896 86.938,231.888 85.741 C 226.806 83.720,201.843 82.815,189.180 84.193 M211.983 114.390 C 212.542 114.843,214.289 115.823,215.865 116.568 C 217.441 117.313,218.932 118.298,219.177 118.757 C 219.423 119.216,220.195 119.887,220.894 120.249 C 221.592 120.610,222.802 121.557,223.582 122.353 C 224.363 123.149,225.899 124.520,226.997 125.400 C 228.095 126.280,229.722 127.720,230.613 128.600 C 231.503 129.480,233.484 131.336,235.016 132.724 C 236.547 134.112,238.610 136.031,239.600 136.989 C 240.590 137.946,241.803 138.930,242.296 139.176 C 242.789 139.422,243.467 140.157,243.804 140.808 C 244.141 141.459,245.122 142.352,245.985 142.792 C 246.848 143.233,248.037 144.227,248.629 145.002 C 249.220 145.777,250.332 146.710,251.099 147.074 C 251.867 147.438,252.827 148.290,253.234 148.968 C 253.640 149.646,254.648 150.560,255.473 151.000 C 256.298 151.440,257.383 152.410,257.885 153.157 C 258.386 153.903,259.283 154.766,259.879 155.075 C 260.474 155.383,261.876 156.483,262.995 157.518 C 264.114 158.553,266.453 160.660,268.193 162.200 C 275.134 168.344,277.995 171.073,279.114 172.618 C 279.759 173.508,280.762 174.749,281.344 175.377 C 283.422 177.620,283.400 177.186,283.400 215.200 C 283.400 254.246,283.491 252.798,280.861 255.736 C 280.042 256.651,278.872 258.077,278.263 258.904 C 276.976 260.648,274.997 261.749,270.800 263.055 L 267.800 263.988 206.600 263.980 C 154.293 263.973,145.255 263.889,144.400 263.400 C 143.850 263.086,143.092 262.822,142.715 262.814 C 139.479 262.747,135.161 259.486,133.412 255.789 C 132.855 254.610,132.200 253.524,131.958 253.374 C 130.017 252.174,130.018 252.200,130.009 215.287 C 130.000 178.878,129.989 179.102,131.780 177.616 C 132.168 177.295,132.888 176.125,133.381 175.016 C 133.879 173.894,135.265 172.024,136.505 170.800 C 141.630 165.739,143.109 164.430,144.419 163.795 C 145.179 163.427,146.162 162.560,146.605 161.868 C 147.048 161.176,148.173 160.189,149.105 159.675 C 150.037 159.161,150.800 158.517,150.800 158.245 C 150.800 157.598,152.759 155.735,153.873 155.323 C 154.353 155.145,155.169 154.370,155.687 153.600 C 156.205 152.830,157.306 151.879,158.135 151.487 C 158.964 151.095,160.006 150.158,160.450 149.405 C 160.895 148.652,161.623 147.920,162.068 147.778 C 162.514 147.637,163.842 146.594,165.019 145.461 C 166.197 144.327,168.114 142.548,169.280 141.508 C 170.446 140.467,172.300 138.769,173.400 137.734 C 174.500 136.700,176.120 135.246,177.000 134.503 C 179.316 132.550,183.122 129.088,185.200 127.045 C 186.190 126.071,187.540 125.006,188.200 124.676 C 188.860 124.347,189.809 123.522,190.310 122.842 C 190.810 122.163,191.890 121.263,192.710 120.843 C 193.529 120.423,194.620 119.509,195.133 118.812 C 195.646 118.114,196.906 117.183,197.932 116.743 C 198.959 116.303,200.416 115.472,201.171 114.897 C 203.653 113.004,209.906 112.711,211.983 114.390 M205.779 155.997 C 205.351 156.424,204.336 157.097,203.525 157.491 C 202.714 157.885,201.627 158.835,201.110 159.603 C 200.592 160.372,199.411 161.418,198.485 161.930 C 197.558 162.441,196.800 163.085,196.800 163.360 C 196.800 163.960,195.185 165.534,193.927 166.161 C 193.430 166.409,192.603 167.239,192.087 168.006 C 191.572 168.773,190.514 169.786,189.736 170.258 C 188.958 170.730,187.994 171.656,187.594 172.314 C 187.193 172.973,186.113 173.935,185.193 174.452 C 184.274 174.969,183.265 175.887,182.952 176.492 C 182.639 177.097,181.892 177.895,181.292 178.264 C 180.691 178.634,179.390 179.702,178.400 180.638 C 177.410 181.574,175.191 183.658,173.469 185.270 C 163.712 194.399,164.766 191.770,164.733 207.060 C 164.702 221.205,164.876 223.328,166.136 224.210 C 167.200 224.955,244.984 225.113,247.103 224.374 C 248.243 223.977,248.551 223.522,249.392 221.000 C 249.759 219.897,249.624 197.388,249.238 195.347 C 248.943 193.791,247.327 191.364,245.309 189.446 C 243.748 187.963,239.565 184.164,233.800 178.992 C 230.720 176.229,227.100 172.896,225.754 171.584 C 224.409 170.273,223.115 169.200,222.877 169.200 C 222.640 169.200,222.137 168.678,221.760 168.040 C 221.383 167.402,220.280 166.378,219.308 165.764 C 218.336 165.150,217.286 164.154,216.975 163.551 C 216.663 162.949,215.731 162.065,214.904 161.586 C 214.077 161.108,212.860 159.987,212.200 159.094 C 211.428 158.050,210.438 157.278,209.427 156.931 C 208.561 156.634,207.562 156.127,207.206 155.805 C 206.634 155.287,206.468 155.310,205.779 155.997 " stroke="none" fill="#fbfbfa" fill-rule="evenodd"></path><path id="path4" d="M197.000 42.818 C 186.618 43.101,182.793 43.556,178.833 44.977 C 177.862 45.326,173.922 46.062,170.080 46.612 C 161.477 47.843,161.455 47.848,159.000 49.212 C 157.895 49.826,155.479 50.620,153.600 50.987 C 149.016 51.881,147.618 52.337,146.191 53.400 C 145.526 53.896,143.906 54.618,142.591 55.004 C 141.276 55.390,139.371 55.958,138.357 56.266 C 137.344 56.574,135.932 57.346,135.220 57.982 C 134.477 58.646,133.046 59.345,131.863 59.624 C 129.349 60.216,126.438 61.649,125.522 62.745 C 125.149 63.192,124.131 63.749,123.259 63.984 C 122.387 64.219,120.802 65.035,119.737 65.797 C 118.672 66.559,116.493 67.813,114.895 68.584 C 113.086 69.456,111.829 70.339,111.562 70.924 C 111.327 71.440,110.486 72.098,109.694 72.384 C 108.902 72.670,107.432 73.668,106.427 74.602 C 105.422 75.536,103.570 76.954,102.311 77.755 C 101.053 78.555,99.831 79.568,99.597 80.006 C 99.363 80.443,98.283 81.251,97.198 81.801 C 96.113 82.351,94.976 83.276,94.672 83.856 C 94.368 84.436,93.328 85.291,92.360 85.755 C 91.392 86.220,90.240 87.168,89.800 87.863 C 89.360 88.557,88.422 89.406,87.715 89.749 C 87.008 90.092,85.949 91.099,85.361 91.987 C 84.774 92.874,84.134 93.600,83.938 93.600 C 83.378 93.600,76.499 100.659,76.228 101.512 C 76.094 101.934,75.557 102.473,75.035 102.711 C 74.480 102.964,73.647 104.070,73.033 105.367 C 72.377 106.753,71.564 107.805,70.872 108.163 C 70.256 108.482,69.247 109.686,68.606 110.869 C 67.970 112.041,66.599 114.027,65.558 115.281 C 64.517 116.536,63.535 117.976,63.376 118.481 C 63.216 118.987,62.763 119.627,62.370 119.904 C 61.976 120.181,61.122 121.531,60.471 122.904 C 59.821 124.277,58.793 125.931,58.188 126.581 C 56.985 127.872,55.623 130.585,55.609 131.716 C 55.597 132.661,54.231 135.310,53.400 136.000 C 52.355 136.867,51.352 139.163,50.641 142.315 C 50.243 144.078,49.529 145.857,48.832 146.820 C 47.657 148.442,44.200 158.201,43.609 161.562 C 42.944 165.350,41.274 172.697,40.464 175.402 C 37.532 185.191,37.607 217.428,40.588 228.999 C 41.325 231.860,42.501 236.900,43.202 240.200 C 43.903 243.500,44.799 246.920,45.193 247.800 C 45.587 248.680,46.043 250.030,46.206 250.800 C 46.618 252.742,48.288 256.429,49.194 257.396 C 49.608 257.838,50.251 259.550,50.622 261.200 C 51.387 264.598,52.040 266.059,53.590 267.839 C 54.183 268.520,55.094 270.465,55.614 272.160 C 56.199 274.067,57.050 275.816,57.846 276.746 C 58.554 277.572,59.694 279.408,60.380 280.824 C 61.066 282.241,62.071 283.812,62.613 284.316 C 63.156 284.820,63.600 285.451,63.600 285.719 C 63.600 285.987,64.416 287.194,65.413 288.403 C 66.410 289.611,67.835 291.680,68.580 293.000 C 69.325 294.320,70.469 295.713,71.122 296.096 C 71.797 296.491,72.579 297.465,72.933 298.349 C 73.275 299.205,74.171 300.421,74.923 301.053 C 75.675 301.684,76.522 302.650,76.806 303.200 C 77.432 304.415,83.390 310.400,83.974 310.400 C 84.203 310.400,84.848 311.126,85.408 312.013 C 85.968 312.900,87.053 313.924,87.819 314.290 C 88.585 314.655,89.566 315.554,89.999 316.288 C 90.483 317.109,91.443 317.907,92.493 318.361 C 93.432 318.767,94.609 319.661,95.110 320.347 C 95.610 321.032,96.690 321.940,97.510 322.364 C 98.329 322.789,99.784 323.873,100.742 324.775 C 101.699 325.677,103.319 326.904,104.342 327.501 C 105.364 328.098,106.644 329.112,107.187 329.754 C 107.730 330.396,108.903 331.245,109.796 331.639 C 110.688 332.034,111.794 332.861,112.254 333.478 C 112.741 334.131,114.238 335.094,115.836 335.783 C 117.346 336.434,119.087 337.450,119.706 338.041 C 120.324 338.632,121.363 339.314,122.015 339.558 C 122.667 339.801,123.725 340.196,124.367 340.435 C 125.009 340.674,126.116 341.390,126.828 342.025 C 128.044 343.111,129.125 343.596,133.000 344.793 C 133.880 345.065,135.500 345.890,136.600 346.626 C 137.910 347.503,139.842 348.266,142.200 348.838 C 144.180 349.319,146.160 350.026,146.600 350.409 C 148.060 351.681,149.756 352.304,154.200 353.199 C 156.620 353.686,159.680 354.582,161.000 355.190 C 164.058 356.598,166.064 357.033,173.117 357.815 C 176.753 358.218,179.737 358.786,181.317 359.377 C 186.216 361.209,188.645 361.400,207.000 361.400 C 225.339 361.400,227.532 361.229,233.007 359.369 C 234.724 358.786,238.374 358.115,242.407 357.642 C 248.915 356.878,252.403 356.045,253.628 354.962 C 253.973 354.657,256.403 353.969,259.028 353.433 C 264.558 352.305,265.711 351.914,267.200 350.662 C 267.835 350.127,269.603 349.442,271.444 349.015 C 274.770 348.245,277.130 347.249,277.940 346.272 C 278.489 345.610,279.496 345.203,283.128 344.173 C 284.753 343.712,286.178 342.979,287.115 342.120 C 287.917 341.385,289.300 340.593,290.187 340.359 C 292.127 339.849,295.038 338.218,295.508 337.379 C 295.694 337.045,296.916 336.339,298.223 335.808 C 299.531 335.278,300.984 334.398,301.453 333.854 C 301.923 333.309,303.003 332.507,303.853 332.071 C 304.704 331.634,306.408 330.393,307.639 329.313 C 308.870 328.232,310.703 326.864,311.712 326.272 C 312.721 325.681,313.655 324.856,313.788 324.439 C 313.920 324.022,315.016 323.213,316.222 322.642 C 317.568 322.004,318.594 321.211,318.878 320.589 C 319.136 320.023,320.058 319.257,320.970 318.853 C 322.462 318.191,329.445 311.588,335.800 304.829 C 336.240 304.361,337.364 303.165,338.299 302.172 C 339.233 301.178,340.287 299.806,340.641 299.122 C 340.994 298.438,341.826 297.422,342.488 296.865 C 343.150 296.307,344.015 295.099,344.409 294.179 C 344.803 293.260,345.706 292.094,346.415 291.589 C 347.255 290.991,348.159 289.674,349.008 287.811 C 349.792 286.090,350.742 284.668,351.392 284.242 C 351.987 283.852,352.886 282.603,353.390 281.467 C 353.894 280.330,354.661 279.081,355.094 278.691 C 355.527 278.302,356.548 276.592,357.361 274.891 C 358.175 273.191,359.189 271.350,359.614 270.800 C 360.040 270.250,360.928 268.235,361.587 266.322 C 362.246 264.410,363.328 262.070,363.991 261.122 C 364.887 259.843,365.464 258.182,366.234 254.662 C 366.990 251.206,367.585 249.474,368.435 248.262 C 369.701 246.456,370.943 241.558,371.392 236.600 C 371.532 235.060,371.896 233.080,372.203 232.200 C 375.091 223.903,376.285 210.322,375.583 193.729 C 375.139 183.243,374.624 179.749,372.378 172.000 C 371.963 170.570,371.342 167.270,370.998 164.666 C 370.334 159.655,369.346 156.434,368.044 155.044 C 367.534 154.499,366.953 152.725,366.407 150.040 C 365.483 145.498,364.755 143.445,363.631 142.205 C 363.230 141.762,362.416 139.922,361.823 138.115 C 361.229 136.308,360.307 134.185,359.773 133.398 C 359.239 132.612,358.193 130.670,357.449 129.084 C 356.705 127.498,355.707 125.851,355.233 125.425 C 354.759 124.999,354.009 123.829,353.566 122.825 C 353.123 121.821,352.158 120.370,351.421 119.600 C 350.684 118.830,349.523 117.081,348.841 115.712 C 348.159 114.344,347.057 112.823,346.393 112.331 C 345.728 111.840,344.747 110.482,344.212 109.314 C 343.677 108.146,342.957 107.081,342.610 106.949 C 342.264 106.816,341.362 105.783,340.606 104.654 C 339.850 103.524,337.686 100.980,335.799 99.000 C 333.911 97.020,331.751 94.732,330.998 93.916 C 328.264 90.949,322.594 85.911,321.176 85.188 C 320.376 84.780,319.410 83.969,319.027 83.386 C 318.645 82.802,317.547 81.978,316.587 81.553 C 315.626 81.128,314.454 80.238,313.982 79.574 C 313.509 78.911,312.327 77.994,311.355 77.537 C 310.383 77.080,309.230 76.204,308.793 75.591 C 308.357 74.978,307.208 74.012,306.241 73.445 C 305.274 72.878,303.580 71.646,302.477 70.707 C 301.374 69.768,299.559 68.679,298.443 68.286 C 297.326 67.893,296.216 67.204,295.975 66.754 C 295.528 65.917,291.111 63.601,289.961 63.600 C 289.610 63.600,288.686 62.981,287.907 62.226 C 286.893 61.240,285.658 60.610,283.546 60.002 C 280.278 59.060,280.255 59.049,278.317 57.507 C 277.422 56.795,275.561 56.055,272.978 55.384 C 270.796 54.817,268.739 54.116,268.406 53.825 C 267.123 52.706,265.043 51.946,261.097 51.154 C 258.642 50.661,256.439 49.962,255.600 49.409 C 253.472 48.006,243.813 46.005,239.149 46.001 C 238.571 46.000,236.384 45.472,234.289 44.827 C 227.821 42.836,217.226 42.265,197.000 42.818 M223.429 46.612 C 226.713 47.169,231.650 47.803,234.400 48.022 C 240.881 48.537,243.450 49.003,247.600 50.416 C 249.470 51.052,253.160 52.047,255.800 52.627 C 258.701 53.264,261.391 54.126,262.600 54.805 C 263.700 55.423,266.267 56.383,268.305 56.938 C 270.342 57.493,272.986 58.506,274.181 59.189 C 275.375 59.872,277.668 60.878,279.276 61.423 C 280.884 61.969,282.972 62.968,283.915 63.643 C 284.858 64.319,286.709 65.294,288.028 65.811 C 289.347 66.328,290.974 67.212,291.643 67.775 C 292.312 68.338,294.161 69.424,295.751 70.189 C 297.340 70.954,299.082 72.051,299.621 72.628 C 300.159 73.204,301.140 73.949,301.800 74.282 C 302.460 74.615,303.630 75.477,304.400 76.196 C 305.170 76.916,306.889 78.237,308.221 79.133 C 309.553 80.029,310.981 81.137,311.395 81.594 C 311.809 82.052,312.789 82.812,313.574 83.284 C 314.358 83.756,315.847 84.920,316.883 85.871 C 317.918 86.822,318.962 87.600,319.202 87.600 C 319.928 87.600,334.800 102.148,334.800 102.858 C 334.800 103.056,335.481 103.979,336.313 104.909 C 337.145 105.839,338.354 107.385,338.999 108.346 C 339.644 109.306,340.410 110.182,340.701 110.294 C 340.992 110.406,341.516 111.060,341.866 111.748 C 342.216 112.437,343.265 113.900,344.196 115.000 C 345.127 116.100,346.436 118.080,347.104 119.400 C 347.773 120.720,348.809 122.250,349.407 122.800 C 350.005 123.350,351.091 125.101,351.821 126.692 C 352.550 128.283,353.586 130.173,354.123 130.892 C 354.659 131.611,355.775 133.730,356.603 135.600 C 357.430 137.470,358.251 139.184,358.427 139.409 C 358.603 139.633,359.388 141.613,360.173 143.809 C 360.957 146.004,361.936 148.257,362.349 148.816 C 362.762 149.375,363.594 151.985,364.198 154.616 C 364.802 157.247,365.887 160.948,366.610 162.841 C 368.057 166.633,369.012 171.011,369.392 175.600 C 369.528 177.250,370.072 181.300,370.600 184.600 C 371.566 190.636,372.409 201.225,372.161 204.200 C 371.354 213.877,371.064 216.655,370.575 219.400 C 370.262 221.160,369.725 225.120,369.382 228.200 C 368.652 234.755,367.922 238.202,366.793 240.414 C 366.345 241.292,365.350 244.636,364.582 247.846 C 363.789 251.162,362.753 254.421,362.182 255.395 C 361.629 256.338,360.656 258.524,360.020 260.254 C 358.621 264.055,354.945 271.960,354.177 272.818 C 353.873 273.158,352.832 275.048,351.863 277.018 C 350.894 278.988,349.699 280.960,349.208 281.400 C 348.716 281.840,347.899 283.018,347.392 284.017 C 346.886 285.016,345.240 287.456,343.735 289.439 C 342.231 291.422,340.196 294.114,339.214 295.422 C 333.351 303.230,322.578 314.211,317.823 317.227 C 316.820 317.862,316.000 318.564,316.000 318.786 C 316.000 319.008,315.235 319.669,314.300 320.254 C 312.430 321.424,307.506 325.173,305.000 327.334 C 304.120 328.092,302.680 329.122,301.800 329.622 C 300.920 330.122,299.660 331.023,299.000 331.625 C 298.340 332.226,296.540 333.348,295.000 334.118 C 293.460 334.888,291.500 336.076,290.645 336.759 C 289.790 337.441,288.890 338.000,288.645 338.000 C 287.985 338.001,283.409 340.223,282.119 341.169 C 281.503 341.620,279.656 342.444,278.013 343.000 C 276.371 343.556,274.344 344.485,273.508 345.063 C 272.667 345.647,270.077 346.635,267.695 347.281 C 265.333 347.922,262.673 348.871,261.785 349.390 C 259.967 350.453,256.872 351.327,251.791 352.213 C 249.893 352.544,247.678 353.151,246.870 353.563 C 243.971 355.037,241.109 355.476,223.400 357.159 C 220.980 357.389,216.065 357.857,212.477 358.198 C 208.890 358.540,205.805 358.727,205.623 358.614 C 205.440 358.501,201.895 358.146,197.745 357.824 C 180.870 356.516,170.882 355.178,168.000 353.838 C 165.843 352.835,165.032 352.626,158.645 351.423 C 156.910 351.097,154.167 350.193,152.550 349.415 C 150.933 348.637,149.448 348.000,149.250 348.000 C 148.035 348.000,141.711 345.825,140.661 345.046 C 139.967 344.531,137.811 343.544,135.868 342.851 C 133.926 342.159,131.766 341.174,131.068 340.664 C 130.371 340.154,128.415 339.145,126.722 338.423 C 125.029 337.702,123.319 336.746,122.922 336.301 C 122.525 335.855,121.037 334.966,119.615 334.324 C 118.193 333.682,116.303 332.563,115.415 331.836 C 114.527 331.109,113.052 330.134,112.138 329.669 C 111.224 329.203,110.144 328.401,109.738 327.886 C 109.332 327.372,107.965 326.289,106.700 325.480 C 105.435 324.672,104.400 323.834,104.400 323.620 C 104.400 323.405,103.275 322.472,101.900 321.545 C 100.525 320.618,98.590 319.154,97.600 318.290 C 96.610 317.426,95.290 316.455,94.667 316.133 C 94.044 315.810,92.745 314.793,91.781 313.873 C 90.817 312.953,89.526 311.724,88.914 311.142 C 88.301 310.560,87.337 309.570,86.771 308.942 C 86.205 308.314,85.361 307.440,84.895 307.000 C 81.801 304.076,76.433 297.918,75.067 295.727 C 74.493 294.806,73.208 293.135,72.211 292.013 C 71.215 290.891,70.120 289.304,69.779 288.486 C 69.438 287.669,68.657 286.460,68.043 285.800 C 67.428 285.140,66.504 283.880,65.990 283.000 C 65.475 282.120,64.276 280.195,63.327 278.721 C 62.377 277.248,61.600 275.871,61.600 275.661 C 61.600 275.452,60.952 274.317,60.159 273.140 C 59.367 271.963,58.279 269.830,57.742 268.400 C 57.205 266.970,56.063 264.630,55.205 263.200 C 54.338 261.755,53.272 259.178,52.806 257.400 C 52.345 255.640,51.341 252.918,50.574 251.351 C 49.345 248.838,47.214 241.069,47.204 239.067 C 47.202 238.664,46.759 237.044,46.219 235.467 C 41.187 220.762,41.055 183.372,45.984 169.045 C 46.427 167.759,47.158 164.792,47.608 162.453 C 48.777 156.384,49.093 155.323,50.631 152.317 C 51.386 150.842,52.285 148.423,52.628 146.941 C 53.400 143.615,54.070 141.979,55.351 140.300 C 55.897 139.584,56.840 137.649,57.447 135.999 C 58.054 134.350,59.075 132.190,59.715 131.200 C 61.179 128.936,63.014 125.901,65.400 121.800 C 66.424 120.040,67.520 118.455,67.836 118.278 C 68.151 118.100,68.851 117.083,69.391 116.017 C 69.931 114.952,71.130 113.207,72.056 112.140 C 72.981 111.073,74.250 109.390,74.876 108.400 C 76.330 106.097,83.386 98.298,88.720 93.097 C 92.890 89.030,94.035 88.000,94.387 88.000 C 94.609 88.000,95.764 87.145,96.953 86.100 C 98.142 85.055,100.169 83.434,101.458 82.498 C 105.275 79.725,107.304 78.143,109.000 76.617 C 109.881 75.825,111.411 74.718,112.400 74.156 C 113.390 73.595,114.346 72.876,114.525 72.559 C 114.703 72.243,116.444 71.182,118.394 70.203 C 120.344 69.224,122.064 68.219,122.218 67.971 C 122.372 67.722,124.049 66.805,125.945 65.933 C 127.841 65.061,129.947 63.925,130.625 63.408 C 131.304 62.891,133.285 61.991,135.029 61.410 C 136.773 60.828,138.830 59.920,139.600 59.392 C 141.140 58.337,143.283 57.511,146.947 56.562 C 148.268 56.220,150.366 55.410,151.608 54.764 C 152.999 54.040,155.932 53.143,159.234 52.432 C 162.185 51.796,165.520 50.911,166.645 50.465 C 169.530 49.322,173.767 48.532,179.800 48.013 C 185.591 47.514,192.368 46.581,194.200 46.030 C 197.147 45.143,217.110 45.541,223.429 46.612 M193.800 81.058 C 193.140 81.150,189.540 81.587,185.800 82.031 C 178.468 82.900,176.576 83.292,174.402 84.395 C 173.631 84.786,170.750 85.576,168.000 86.150 C 164.915 86.794,162.136 87.645,160.745 88.371 C 159.504 89.018,156.974 90.009,155.122 90.574 C 153.270 91.139,150.889 92.151,149.830 92.822 C 148.771 93.493,146.754 94.476,145.346 95.006 C 143.939 95.535,142.205 96.406,141.494 96.941 C 140.782 97.476,138.726 98.649,136.924 99.549 C 135.122 100.449,133.502 101.423,133.324 101.714 C 133.146 102.006,132.280 102.672,131.400 103.195 C 130.520 103.719,128.810 104.983,127.600 106.004 C 126.390 107.026,124.545 108.441,123.500 109.150 C 122.455 109.859,121.600 110.574,121.600 110.739 C 121.600 110.905,120.756 111.571,119.725 112.220 C 117.939 113.344,115.371 115.563,113.200 117.859 C 112.650 118.441,111.682 119.386,111.048 119.958 C 110.414 120.531,109.424 121.522,108.848 122.161 C 108.272 122.800,106.967 124.150,105.948 125.161 C 104.929 126.172,103.939 127.299,103.748 127.664 C 103.557 128.030,102.730 129.110,101.912 130.064 C 99.264 133.151,96.399 137.225,95.190 139.620 C 94.540 140.907,93.555 142.381,92.999 142.895 C 92.444 143.410,91.378 145.391,90.630 147.296 C 89.882 149.201,88.731 151.444,88.073 152.280 C 87.414 153.116,86.396 155.150,85.810 156.800 C 85.225 158.450,84.235 160.880,83.611 162.200 C 82.988 163.520,82.088 166.040,81.612 167.800 C 81.136 169.560,80.402 172.027,79.980 173.283 C 76.806 182.731,75.801 206.529,77.990 220.400 C 79.410 229.400,82.704 241.255,84.380 243.399 C 84.552 243.620,85.190 245.310,85.798 247.156 C 86.529 249.375,87.365 251.023,88.268 252.022 C 89.110 252.955,90.016 254.674,90.635 256.516 C 91.203 258.204,92.167 260.085,92.856 260.849 C 93.525 261.592,94.582 263.190,95.204 264.400 C 95.825 265.610,97.606 268.220,99.160 270.200 C 100.714 272.180,102.615 274.730,103.384 275.866 C 104.152 277.002,105.328 278.322,105.997 278.798 C 106.665 279.274,107.486 280.192,107.820 280.839 C 108.155 281.486,109.180 282.560,110.097 283.224 C 111.015 283.889,112.064 284.888,112.429 285.444 C 112.793 286.000,114.016 287.077,115.146 287.838 C 116.276 288.599,117.200 289.383,117.200 289.580 C 117.200 289.777,118.415 290.770,119.900 291.785 C 122.536 293.589,125.163 295.643,128.800 298.748 C 129.790 299.593,131.320 300.651,132.200 301.099 C 133.080 301.548,134.154 302.307,134.588 302.786 C 135.021 303.265,136.697 304.268,138.313 305.014 C 139.928 305.760,141.770 306.808,142.405 307.343 C 143.040 307.878,144.874 308.809,146.480 309.412 C 148.086 310.015,149.940 310.901,150.600 311.379 C 152.007 312.399,153.136 312.852,157.200 314.024 C 158.850 314.500,160.939 315.321,161.843 315.849 C 162.779 316.396,166.050 317.399,169.443 318.180 C 172.719 318.934,176.059 319.827,176.864 320.165 C 185.604 323.837,226.576 323.997,236.675 320.398 C 238.794 319.643,240.580 319.180,248.400 317.360 C 249.830 317.027,251.652 316.328,252.448 315.806 C 253.244 315.284,255.550 314.404,257.571 313.851 C 259.592 313.297,262.371 312.214,263.747 311.444 C 265.123 310.675,267.254 309.669,268.482 309.210 C 269.711 308.750,271.410 307.872,272.258 307.259 C 273.106 306.646,275.105 305.460,276.700 304.623 C 278.295 303.786,279.600 302.969,279.600 302.807 C 279.600 302.646,280.635 301.872,281.900 301.089 C 283.165 300.305,284.830 299.091,285.600 298.392 C 286.370 297.692,287.900 296.533,289.000 295.814 C 290.100 295.096,291.450 294.017,292.000 293.415 C 292.550 292.814,293.672 291.977,294.494 291.556 C 295.316 291.135,296.288 290.332,296.655 289.772 C 297.022 289.212,297.976 288.420,298.775 288.013 C 300.321 287.224,308.349 278.954,309.659 276.800 C 310.089 276.093,310.946 275.089,311.564 274.569 C 312.183 274.048,313.292 272.627,314.029 271.411 C 314.766 270.195,315.481 269.200,315.618 269.200 C 315.755 269.200,316.555 268.165,317.395 266.900 C 318.236 265.635,319.412 263.880,320.009 263.000 C 320.606 262.120,321.568 260.462,322.146 259.316 C 322.724 258.170,323.731 256.390,324.385 255.360 C 325.038 254.330,325.951 252.349,326.414 250.959 C 326.876 249.568,327.691 247.789,328.223 247.004 C 329.869 244.579,330.265 243.549,331.354 238.877 C 331.933 236.389,332.767 233.650,333.206 232.789 C 338.528 222.356,338.352 178.910,332.952 170.490 C 332.631 169.990,331.933 167.610,331.400 165.201 C 330.450 160.905,329.819 159.234,328.366 157.166 C 327.967 156.598,327.089 154.618,326.416 152.766 C 325.742 150.915,324.857 148.944,324.448 148.388 C 324.040 147.831,323.300 146.571,322.805 145.588 C 322.310 144.604,321.334 142.990,320.637 142.000 C 319.941 141.010,318.861 139.323,318.239 138.250 C 317.617 137.178,316.523 135.648,315.808 134.850 C 315.094 134.053,314.221 132.836,313.869 132.147 C 313.517 131.458,312.670 130.378,311.987 129.747 C 311.304 129.116,310.139 127.700,309.398 126.600 C 307.276 123.448,296.940 113.720,294.200 112.295 C 293.540 111.952,292.460 111.097,291.800 110.394 C 291.140 109.692,289.655 108.508,288.500 107.764 C 287.345 107.019,286.400 106.264,286.400 106.085 C 286.400 105.906,284.963 104.813,283.208 103.654 C 281.452 102.496,279.909 101.376,279.778 101.165 C 279.648 100.955,278.250 100.144,276.671 99.365 C 275.092 98.585,273.425 97.596,272.966 97.166 C 272.507 96.736,270.707 95.788,268.966 95.060 C 267.225 94.331,265.109 93.260,264.263 92.681 C 263.418 92.101,261.185 91.156,259.301 90.581 C 257.416 90.006,254.958 89.019,253.837 88.387 C 252.420 87.587,250.157 86.913,246.400 86.172 C 243.430 85.587,240.369 84.787,239.598 84.395 C 234.764 81.941,203.732 79.680,193.800 81.058 M224.200 84.184 C 227.700 84.566,230.214 85.075,231.888 85.741 C 234.896 86.938,235.229 87.013,241.826 87.978 C 246.238 88.622,247.371 88.939,249.092 90.009 C 250.361 90.798,252.639 91.640,255.124 92.239 C 258.153 92.969,259.413 93.478,260.346 94.350 C 261.109 95.062,262.855 95.906,264.946 96.571 C 266.800 97.162,268.650 98.014,269.058 98.465 C 269.877 99.372,272.616 100.837,274.831 101.554 C 275.618 101.808,276.652 102.544,277.128 103.188 C 277.605 103.833,278.789 104.711,279.759 105.141 C 280.730 105.570,282.021 106.480,282.629 107.162 C 283.238 107.845,284.650 108.985,285.768 109.695 C 286.885 110.405,288.484 111.619,289.320 112.393 C 290.155 113.167,291.475 114.091,292.252 114.447 C 293.029 114.803,294.005 115.655,294.422 116.340 C 294.842 117.031,295.970 117.958,296.952 118.420 C 298.134 118.975,298.892 119.656,299.226 120.463 C 299.502 121.128,300.430 122.138,301.290 122.707 C 302.149 123.276,303.111 124.241,303.427 124.852 C 303.743 125.464,304.721 126.542,305.601 127.249 C 306.480 127.956,307.200 128.768,307.200 129.053 C 307.200 129.727,309.545 132.399,310.141 132.404 C 310.394 132.406,311.121 133.531,311.758 134.904 C 312.394 136.277,313.527 137.980,314.275 138.690 C 315.023 139.399,316.084 140.995,316.633 142.237 C 317.183 143.479,318.069 145.068,318.602 145.767 C 319.136 146.467,320.218 148.455,321.006 150.186 C 321.795 151.917,322.773 153.801,323.180 154.372 C 323.587 154.943,324.307 156.686,324.781 158.246 C 325.255 159.806,326.259 162.020,327.014 163.165 C 328.229 165.011,328.503 165.957,329.416 171.457 C 329.982 174.872,330.958 179.136,331.584 180.933 C 334.613 189.631,334.838 215.133,331.945 221.919 C 330.854 224.478,330.086 227.737,329.215 233.500 C 328.527 238.053,328.270 238.913,327.055 240.718 C 326.297 241.845,325.269 243.990,324.772 245.484 C 324.275 246.978,323.372 249.010,322.764 250.000 C 322.157 250.990,321.272 252.838,320.799 254.106 C 320.325 255.375,319.525 256.905,319.021 257.506 C 317.812 258.948,316.400 261.617,316.400 262.460 C 316.400 262.830,315.664 263.823,314.766 264.666 C 313.867 265.510,312.674 267.100,312.116 268.200 C 311.558 269.300,310.247 271.109,309.203 272.221 C 308.159 273.333,307.185 274.618,307.039 275.076 C 306.894 275.535,306.102 276.356,305.280 276.899 C 304.459 277.443,303.454 278.505,303.047 279.260 C 302.641 280.014,301.694 281.035,300.942 281.527 C 300.191 282.020,299.280 283.044,298.918 283.804 C 298.470 284.742,297.830 285.326,296.919 285.627 C 296.182 285.870,295.089 286.696,294.490 287.463 C 293.890 288.230,292.770 289.190,292.000 289.595 C 291.230 290.001,289.636 291.161,288.459 292.174 C 287.281 293.186,285.541 294.470,284.592 295.026 C 283.643 295.582,282.404 296.644,281.838 297.386 C 281.231 298.181,280.299 298.846,279.565 299.008 C 278.880 299.158,277.663 299.950,276.860 300.768 C 275.959 301.686,274.329 302.677,272.600 303.358 C 271.060 303.965,269.260 304.968,268.600 305.588 C 267.856 306.285,266.057 307.146,263.868 307.850 C 261.858 308.496,259.819 309.448,259.135 310.058 C 258.347 310.762,256.950 311.356,255.067 311.787 C 249.598 313.041,248.757 313.319,247.077 314.432 C 245.659 315.371,244.460 315.682,239.594 316.373 C 232.635 317.362,230.255 317.880,228.399 318.812 C 223.548 321.247,190.516 321.332,185.849 318.921 C 183.988 317.960,181.243 317.268,177.433 316.799 C 171.026 316.012,168.027 315.294,166.789 314.252 C 166.062 313.641,164.461 313.016,162.514 312.583 C 156.875 311.330,156.521 311.209,155.014 310.011 C 154.172 309.342,152.069 308.382,150.196 307.810 C 147.986 307.136,146.308 306.326,145.194 305.395 C 144.272 304.625,143.041 303.881,142.459 303.741 C 140.806 303.346,139.511 302.593,137.823 301.047 C 136.967 300.263,135.345 299.239,134.219 298.772 C 132.905 298.228,131.930 297.504,131.499 296.754 C 131.109 296.074,130.100 295.271,129.091 294.839 C 128.135 294.429,127.048 293.628,126.675 293.058 C 126.301 292.488,125.052 291.411,123.898 290.663 C 122.744 289.916,120.990 288.545,120.000 287.615 C 119.010 286.686,117.736 285.684,117.169 285.388 C 116.602 285.093,115.486 284.055,114.689 283.082 C 113.892 282.109,112.702 281.091,112.046 280.819 C 111.332 280.523,110.691 279.862,110.451 279.174 C 110.230 278.541,109.164 277.163,108.082 276.112 C 106.999 275.060,105.539 273.180,104.837 271.933 C 104.135 270.687,103.109 269.370,102.555 269.008 C 102.002 268.645,101.189 267.505,100.749 266.474 C 100.309 265.443,99.523 264.150,99.004 263.600 C 98.484 263.050,97.399 261.340,96.591 259.800 C 95.784 258.260,94.706 256.550,94.196 256.000 C 93.686 255.450,93.055 254.190,92.793 253.200 C 92.152 250.782,91.346 249.248,89.928 247.753 C 88.982 246.755,88.555 245.661,87.789 242.271 C 87.262 239.942,86.365 237.115,85.795 235.991 C 84.567 233.566,83.450 229.172,82.800 224.200 C 82.541 222.220,81.895 218.024,81.365 214.875 C 80.202 207.975,80.047 197.734,81.013 191.600 C 81.342 189.510,81.971 185.190,82.411 182.000 C 83.448 174.490,84.245 171.140,85.678 168.270 C 86.318 166.988,87.260 164.044,87.771 161.727 C 88.520 158.330,88.911 157.319,89.795 156.499 C 90.974 155.407,92.790 151.871,92.796 150.658 C 92.798 150.249,93.880 148.290,95.200 146.303 C 96.520 144.316,97.600 142.477,97.600 142.215 C 97.600 141.953,98.041 141.325,98.580 140.819 C 99.119 140.313,99.915 139.142,100.350 138.217 C 100.785 137.292,101.946 135.591,102.930 134.438 C 103.914 133.285,105.127 131.573,105.626 130.633 C 106.125 129.694,107.153 128.499,107.912 127.980 C 108.670 127.460,109.666 126.262,110.125 125.317 C 110.584 124.373,111.187 123.600,111.466 123.600 C 112.150 123.600,114.708 121.319,114.979 120.468 C 115.098 120.092,115.848 119.433,116.645 119.004 C 117.442 118.575,118.533 117.648,119.070 116.944 C 119.607 116.240,121.161 114.935,122.523 114.043 C 123.885 113.152,125.518 111.870,126.151 111.194 C 126.783 110.518,127.968 109.624,128.783 109.209 C 129.598 108.793,130.736 107.835,131.311 107.081 C 131.942 106.253,132.842 105.612,133.577 105.465 C 134.247 105.331,135.586 104.492,136.553 103.601 C 137.520 102.709,139.456 101.519,140.856 100.956 C 142.255 100.392,143.940 99.417,144.600 98.788 C 145.351 98.073,147.028 97.258,149.084 96.610 C 150.890 96.041,152.890 95.136,153.528 94.599 C 154.982 93.376,156.219 92.903,160.000 92.125 C 163.198 91.467,164.896 90.766,166.223 89.556 C 166.813 89.017,168.562 88.576,172.423 87.992 C 178.107 87.131,181.423 86.319,183.375 85.309 C 186.458 83.715,213.166 82.979,224.200 84.184 M203.971 113.547 C 203.185 113.714,201.925 114.322,201.171 114.897 C 200.416 115.472,198.959 116.303,197.932 116.743 C 196.906 117.183,195.646 118.114,195.133 118.812 C 194.620 119.509,193.529 120.423,192.710 120.843 C 191.890 121.263,190.810 122.163,190.310 122.842 C 189.809 123.522,188.860 124.347,188.200 124.676 C 187.540 125.006,186.190 126.071,185.200 127.045 C 183.122 129.088,179.316 132.550,177.000 134.503 C 176.120 135.246,174.500 136.700,173.400 137.734 C 172.300 138.769,170.446 140.467,169.280 141.508 C 168.114 142.548,166.197 144.327,165.019 145.461 C 163.842 146.594,162.514 147.637,162.068 147.778 C 161.623 147.920,160.895 148.652,160.450 149.405 C 160.006 150.158,158.964 151.095,158.135 151.487 C 157.306 151.879,156.205 152.830,155.687 153.600 C 155.169 154.370,154.353 155.145,153.873 155.323 C 152.759 155.735,150.800 157.598,150.800 158.245 C 150.800 158.517,150.037 159.161,149.105 159.675 C 148.173 160.189,147.048 161.176,146.605 161.868 C 146.162 162.560,145.179 163.427,144.419 163.795 C 143.109 164.430,141.630 165.739,136.505 170.800 C 135.265 172.024,133.879 173.894,133.381 175.016 C 132.888 176.125,132.168 177.295,131.780 177.616 C 129.989 179.102,130.000 178.878,130.009 215.287 C 130.018 252.200,130.017 252.174,131.958 253.374 C 132.200 253.524,132.855 254.610,133.412 255.789 C 135.161 259.486,139.479 262.747,142.715 262.814 C 143.092 262.822,143.850 263.086,144.400 263.400 C 145.255 263.889,154.293 263.973,206.600 263.980 L 267.800 263.988 270.800 263.055 C 274.997 261.749,276.976 260.648,278.263 258.904 C 278.872 258.077,280.042 256.651,280.861 255.736 C 283.491 252.798,283.400 254.246,283.400 215.200 C 283.400 177.186,283.422 177.620,281.344 175.377 C 280.762 174.749,279.759 173.508,279.114 172.618 C 277.995 171.073,275.134 168.344,268.193 162.200 C 266.453 160.660,264.114 158.553,262.995 157.518 C 261.876 156.483,260.474 155.383,259.879 155.075 C 259.283 154.766,258.386 153.903,257.885 153.157 C 257.383 152.410,256.298 151.440,255.473 151.000 C 254.648 150.560,253.640 149.646,253.234 148.968 C 252.827 148.290,251.867 147.438,251.099 147.074 C 250.332 146.710,249.220 145.777,248.629 145.002 C 248.037 144.227,246.848 143.233,245.985 142.792 C 245.122 142.352,244.141 141.459,243.804 140.808 C 243.467 140.157,242.789 139.422,242.296 139.176 C 241.803 138.930,240.590 137.946,239.600 136.989 C 238.610 136.031,236.547 134.112,235.016 132.724 C 233.484 131.336,231.503 129.480,230.613 128.600 C 229.722 127.720,228.095 126.280,226.997 125.400 C 225.899 124.520,224.363 123.149,223.582 122.353 C 222.802 121.557,221.592 120.610,220.894 120.249 C 220.195 119.887,219.423 119.216,219.177 118.757 C 218.932 118.298,217.441 117.313,215.865 116.568 C 214.289 115.823,212.542 114.843,211.983 114.390 C 210.843 113.468,206.490 113.010,203.971 113.547 M211.400 115.969 C 211.620 116.134,212.810 116.669,214.044 117.158 C 215.279 117.647,217.027 118.712,217.929 119.524 C 218.832 120.336,220.945 122.170,222.626 123.600 C 224.307 125.030,229.129 129.315,233.341 133.122 C 237.554 136.928,241.950 140.888,243.112 141.922 C 244.273 142.955,245.983 144.521,246.912 145.402 C 247.840 146.283,249.230 147.451,250.000 147.996 C 250.770 148.542,252.056 149.621,252.859 150.394 C 254.468 151.945,256.699 153.954,263.634 160.096 C 275.951 171.004,277.280 172.279,278.954 174.788 C 282.303 179.812,282.000 175.793,282.000 215.193 L 282.000 250.427 281.043 252.313 C 279.033 256.275,276.566 259.102,273.908 260.490 L 271.400 261.800 208.600 261.920 C 163.223 262.006,145.134 261.914,143.400 261.588 C 138.809 260.725,136.092 258.384,133.154 252.759 L 131.400 249.400 131.400 215.200 L 131.400 181.000 132.588 179.000 C 133.241 177.900,134.108 176.340,134.513 175.534 C 135.202 174.163,140.983 168.438,147.400 162.770 C 150.017 160.458,151.123 159.472,156.800 154.388 C 158.010 153.304,161.099 150.568,163.666 148.309 C 174.928 138.391,180.232 133.678,182.024 132.000 C 183.866 130.274,184.713 129.521,191.000 124.026 C 192.540 122.680,194.601 120.845,195.580 119.949 C 199.578 116.289,208.754 113.980,211.400 115.969 M205.362 154.452 C 204.943 154.920,203.937 155.725,203.127 156.240 C 202.317 156.755,199.887 158.875,197.727 160.950 C 195.567 163.026,192.654 165.776,191.254 167.062 C 189.854 168.348,187.734 170.300,186.545 171.400 C 183.867 173.876,181.406 176.115,174.000 182.813 C 165.374 190.613,163.312 192.943,162.783 195.485 C 162.076 198.883,162.433 223.412,163.200 224.149 C 165.123 225.997,165.199 226.000,206.514 225.994 C 246.459 225.987,249.064 225.894,250.536 224.425 C 251.047 223.914,251.460 197.985,251.007 194.923 C 250.750 193.191,245.763 187.791,238.147 181.000 C 236.667 179.680,234.363 177.585,233.028 176.345 C 230.921 174.389,226.983 170.825,217.488 162.281 C 216.216 161.136,214.326 159.325,213.288 158.256 C 212.250 157.187,210.558 155.885,209.528 155.364 C 208.499 154.842,207.543 154.232,207.405 154.008 C 207.002 153.355,206.184 153.533,205.362 154.452 M209.427 156.931 C 210.438 157.278,211.428 158.050,212.200 159.094 C 212.860 159.987,214.077 161.108,214.904 161.586 C 215.731 162.065,216.663 162.949,216.975 163.551 C 217.286 164.154,218.336 165.150,219.308 165.764 C 220.280 166.378,221.383 167.402,221.760 168.040 C 222.137 168.678,222.640 169.200,222.877 169.200 C 223.115 169.200,224.409 170.273,225.754 171.584 C 227.100 172.896,230.720 176.229,233.800 178.992 C 239.565 184.164,243.748 187.963,245.309 189.446 C 247.327 191.364,248.943 193.791,249.238 195.347 C 249.624 197.388,249.759 219.897,249.392 221.000 C 248.551 223.522,248.243 223.977,247.103 224.374 C 244.984 225.113,167.200 224.955,166.136 224.210 C 164.876 223.328,164.702 221.205,164.733 207.060 C 164.766 191.770,163.712 194.399,173.469 185.270 C 175.191 183.658,177.410 181.574,178.400 180.638 C 179.390 179.702,180.691 178.634,181.292 178.264 C 181.892 177.895,182.639 177.097,182.952 176.492 C 183.265 175.887,184.274 174.969,185.193 174.452 C 186.113 173.935,187.193 172.973,187.594 172.314 C 187.994 171.656,188.958 170.730,189.736 170.258 C 190.514 169.786,191.572 168.773,192.087 168.006 C 192.603 167.239,193.430 166.409,193.927 166.161 C 195.185 165.534,196.800 163.960,196.800 163.360 C 196.800 163.085,197.558 162.441,198.485 161.930 C 199.411 161.418,200.592 160.372,201.110 159.603 C 201.627 158.835,202.714 157.885,203.525 157.491 C 204.336 157.097,205.351 156.424,205.779 155.997 C 206.468 155.310,206.634 155.287,207.206 155.805 C 207.562 156.127,208.561 156.634,209.427 156.931 " stroke="none" fill="#f8e69a" fill-rule="evenodd"></path></g></svg>